<?xml version="1.0" standalone="no"?>
<!DOCTYPE svg PUBLIC "-//W3C//DTD SVG 20010904//EN"
 "http://www.w3.org/TR/2001/REC-SVG-20010904/DTD/svg10.dtd">
<svg version="1.0" xmlns="http://www.w3.org/2000/svg"
 width="1024.000000pt" height="1024.000000pt" viewBox="0 0 1024.000000 1024.000000"
 preserveAspectRatio="xMidYMid meet">

<g transform="translate(0.000000,1024.000000) scale(0.100000,-0.100000)"
fill="#000000" stroke="none">
<path d="M2735 9263 c-30 -7 -39 -20 -41 -56 0 -17 -15 -63 -32 -102 -58 -132
-85 -272 -97 -505 -9 -160 6 -297 46 -427 l32 -102 -49 -54 c-56 -60 -178
-259 -231 -375 -121 -264 -183 -569 -183 -902 0 -236 16 -370 71 -592 16 -64
29 -122 29 -129 0 -7 -11 -9 -32 -5 -60 11 -221 25 -368 31 -80 4 -158 8 -175
10 -74 9 -580 5 -670 -5 -55 -6 -172 -27 -260 -47 -88 -20 -171 -38 -185 -41
-31 -6 -60 -30 -60 -50 0 -13 15 -14 98 -9 53 3 142 16 197 27 141 30 342 48
540 48 192 -1 664 -29 770 -47 39 -7 94 -15 123 -19 l53 -7 43 -102 44 -103
-32 -4 c-17 -3 -80 -7 -141 -10 -60 -3 -191 -14 -290 -26 -407 -47 -573 -82
-855 -180 -96 -34 -203 -70 -237 -81 -33 -10 -71 -28 -84 -38 -21 -17 -22 -20
-7 -35 24 -23 52 -20 153 20 304 120 551 176 890 204 66 6 179 17 250 25 72 8
193 16 271 17 l140 3 64 -98 c101 -159 328 -405 487 -528 291 -226 610 -356
976 -398 l148 -16 -30 -41 c-69 -94 -171 -316 -171 -373 0 -35 -36 -56 -168
-101 -124 -42 -131 -43 -257 -43 -117 0 -138 2 -214 28 -178 61 -261 136 -434
395 -111 165 -149 213 -251 316 -105 104 -132 126 -206 162 -159 77 -316 108
-412 82 -54 -15 -100 -72 -96 -118 4 -46 40 -72 141 -103 102 -31 125 -44 185
-103 56 -53 109 -139 135 -216 94 -278 195 -468 334 -626 142 -163 240 -235
427 -311 144 -59 252 -75 421 -63 130 9 172 18 282 61 39 16 75 29 78 29 8 0
-2 -335 -16 -555 -17 -256 -52 -367 -151 -471 -67 -71 -106 -93 -246 -143 -63
-22 -120 -48 -128 -58 -70 -91 10 -223 154 -254 118 -25 452 32 574 98 29 15
84 58 123 95 108 102 168 215 205 385 23 109 24 86 5 -85 -20 -166 -42 -254
-93 -364 -33 -72 -56 -103 -131 -181 -96 -99 -121 -142 -121 -206 0 -34 6 -44
42 -75 23 -20 60 -41 82 -47 136 -37 379 53 507 188 74 78 112 135 169 256 50
106 68 164 97 314 14 72 16 131 12 333 -8 472 -3 1061 10 1145 26 166 26 182
1 190 -34 11 -57 -19 -84 -109 -51 -171 -58 -353 -44 -1126 6 -324 5 -364 -12
-460 -25 -135 -40 -183 -100 -306 -70 -145 -170 -246 -301 -306 -59 -27 -183
-42 -227 -27 -41 13 -72 36 -72 53 0 6 28 39 63 72 133 132 173 192 227 344
46 131 56 185 66 365 20 342 -4 1405 -33 1480 -8 23 -25 18 -66 -20 l-37 -34
0 -530 c1 -476 -1 -545 -20 -683 -21 -166 -40 -233 -92 -331 -37 -69 -139
-183 -205 -229 -117 -80 -402 -133 -531 -99 -47 13 -107 60 -115 91 -4 16 1
20 32 25 134 21 262 75 328 137 82 79 143 201 174 352 29 143 38 261 44 556 5
289 16 481 40 690 15 124 21 154 52 260 32 111 143 270 197 284 14 3 30 20 41
42 17 35 17 37 -1 48 -21 12 -21 12 -164 25 -306 28 -443 67 -733 212 -253
126 -445 279 -629 499 -85 101 -229 312 -271 395 -63 128 -153 462 -179 669
-16 129 -20 421 -8 531 45 400 178 756 365 982 l85 102 -16 43 c-29 82 -55
234 -64 376 -9 129 -7 159 15 311 29 197 79 375 104 366 9 -4 95 -26 191 -50
164 -42 186 -50 365 -141 217 -111 367 -194 444 -247 29 -21 61 -37 71 -37 10
0 20 -6 23 -14 4 -10 30 -5 122 26 144 48 197 59 465 98 364 53 826 53 1150 0
244 -39 316 -53 415 -76 55 -13 132 -28 170 -35 l70 -11 110 60 c61 32 146 81
190 107 151 91 363 185 577 256 116 38 216 69 222 69 19 0 78 -171 87 -252 4
-40 15 -122 24 -183 24 -174 1 -428 -53 -589 l-19 -55 70 -113 c224 -361 348
-647 392 -897 17 -100 34 -374 28 -463 -27 -412 -88 -674 -214 -918 -54 -105
-209 -331 -278 -405 -75 -81 -266 -231 -380 -299 -210 -125 -307 -168 -547
-241 -160 -50 -252 -72 -453 -109 -47 -9 -87 -18 -89 -21 -7 -6 28 -45 40 -45
26 0 140 -118 176 -183 39 -68 88 -206 101 -282 21 -122 30 -300 36 -717 4
-234 10 -452 15 -485 5 -32 13 -90 19 -130 37 -247 205 -437 426 -483 33 -7
71 -18 84 -25 l25 -12 -27 -27 c-39 -39 -104 -65 -183 -72 -88 -8 -264 25
-349 65 -179 85 -321 235 -373 396 -45 138 -51 229 -55 810 -4 507 -6 554 -23
606 -19 56 -44 79 -86 79 -10 0 -18 5 -18 10 0 25 -28 7 -34 -22 -10 -44 -9
-68 5 -189 6 -58 15 -381 19 -729 8 -620 8 -626 34 -750 34 -164 42 -192 82
-276 21 -45 60 -100 106 -151 103 -114 127 -143 145 -176 22 -42 1 -60 -74
-63 -187 -7 -317 64 -456 249 -94 126 -125 201 -156 384 -30 170 -38 342 -40
833 -3 666 -17 854 -64 884 -18 12 -73 -4 -70 -20 29 -154 33 -258 33 -841 1
-734 5 -780 90 -1042 47 -144 93 -223 185 -317 121 -123 268 -211 390 -233
120 -21 275 58 275 141 0 62 -20 93 -115 182 -89 82 -99 96 -150 200 -50 101
-58 127 -85 275 -35 192 -39 270 -5 126 29 -125 44 -162 100 -240 62 -88 126
-140 230 -190 109 -52 184 -72 338 -87 250 -26 407 48 394 184 -2 23 -9 44
-15 46 -7 2 -12 9 -12 16 0 6 -42 27 -92 45 -51 18 -118 46 -149 62 -67 33
-158 130 -193 203 -28 59 -52 176 -60 291 -5 65 -15 604 -20 1010 -3 196 -81
461 -171 580 l-25 31 113 22 c300 58 548 161 842 350 258 166 450 362 585 596
l46 80 204 -3 c238 -3 470 -16 532 -31 24 -6 115 -24 203 -40 88 -17 286 -62
440 -99 195 -48 291 -67 318 -64 20 3 37 8 37 12 0 17 -225 106 -390 154 -116
33 -149 42 -340 83 -272 58 -417 75 -698 81 -228 5 -253 7 -248 22 3 9 23 67
44 128 21 62 41 115 43 118 11 11 218 35 429 51 340 25 653 14 1067 -37 103
-13 143 -7 143 19 0 14 -32 23 -203 55 -264 49 -318 56 -489 62 -79 3 -155 8
-171 10 -49 8 -470 -14 -562 -30 -86 -14 -185 -20 -185 -11 0 3 7 35 16 73 37
158 55 330 61 570 8 316 -7 431 -79 626 -17 45 -41 114 -54 152 -74 223 -164
380 -306 532 l-58 62 19 34 c10 18 21 48 24 67 3 19 17 91 32 160 25 113 27
138 21 260 -8 213 -29 333 -81 468 -27 71 -45 133 -45 158 0 37 -3 42 -27 47
-16 3 -30 2 -33 -2 -8 -12 -60 -19 -60 -8 0 15 -99 -1 -249 -39 -180 -47 -289
-85 -461 -161 -175 -77 -237 -112 -356 -195 l-90 -65 -65 18 c-104 29 -289 67
-359 74 -36 3 -99 12 -140 20 -218 41 -596 58 -851 40 -220 -17 -320 -27 -350
-35 -19 -6 -58 -10 -88 -10 -63 0 -279 -49 -403 -91 l-88 -30 -90 62 c-76 51
-395 217 -528 275 -77 33 -281 96 -387 119 -60 13 -119 26 -130 28 -11 3 -29
3 -40 0z m4615 -47 c0 -2 -11 -6 -25 -8 -14 -3 -25 -1 -25 3 0 5 11 9 25 9 14
0 25 -2 25 -4z m-122 -41 c-5 -6 -129 -51 -261 -96 -134 -46 -490 -207 -592
-268 -27 -17 -54 -30 -59 -31 -12 0 32 32 68 50 17 8 59 34 95 58 82 54 256
138 383 186 53 20 107 41 120 46 59 27 264 73 246 55z m-4231 -11 c-3 -3 -12
-4 -19 -1 -8 3 -5 6 6 6 11 1 17 -2 13 -5z m48 -14 c8 -13 -5 -13 -25 0 -13 8
-13 10 2 10 9 0 20 -4 23 -10z m4215 0 c-8 -5 -22 -10 -30 -10 -13 0 -13 1 0
10 8 5 22 10 30 10 13 0 13 -1 0 -10z m-4300 -10 c13 -9 13 -10 0 -9 -8 0 -24
4 -35 9 l-20 9 20 0 c11 0 27 -4 35 -9z m4240 -5 c-7 -9 -15 -13 -19 -10 -3 3
1 10 9 15 21 14 24 12 10 -5z m-3917 -61 c64 -32 109 -64 92 -64 -4 0 -33 16
-65 35 -32 19 -62 35 -66 35 -12 1 -50 30 -40 30 5 0 40 -16 79 -36z m3802 16
c-3 -5 -14 -10 -23 -10 -15 0 -15 2 -2 10 20 13 33 13 25 0z m484 -216 c11
-50 20 -107 20 -125 -1 -23 -7 -5 -19 51 -10 47 -20 94 -23 105 -3 11 -9 36
-12 55 -13 69 12 6 34 -86z m-4039 60 c0 -2 -9 0 -20 6 -11 6 -20 13 -20 16 0
2 9 0 20 -6 11 -6 20 -13 20 -16z m82 -35 c26 -17 48 -33 48 -34 0 -2 -25 8
-55 23 -30 15 -55 30 -55 34 0 13 12 9 62 -23z m1316 4 c-32 -2 -86 -2 -120 0
-35 2 -9 3 57 3 66 0 94 -1 63 -3z m527 -13 c33 -5 81 -10 107 -10 26 0 49 -4
53 -9 3 -6 -8 -8 -27 -6 -18 2 -94 9 -168 15 -169 14 -242 29 -115 24 50 -2
117 -8 150 -14z m1174 6 c-13 -13 -232 -135 -284 -158 -54 -24 -67 -26 -120
-19 -103 15 -190 33 -200 43 -5 5 3 6 20 3 17 -3 59 -9 94 -14 55 -7 62 -6 46
5 -23 17 -12 18 17 3 29 -15 118 -22 118 -9 0 5 7 10 15 10 8 0 50 19 92 42
43 23 92 48 108 55 17 8 41 20 55 28 24 13 48 19 39 11z m-3973 -48 c-4 -13
-14 -75 -22 -138 -17 -132 -30 -161 -20 -46 8 105 27 206 39 206 5 0 6 -10 3
-22z m2549 13 c50 -7 33 -9 -97 -10 -87 0 -158 2 -158 7 0 11 184 13 255 3z
m-515 -9 c0 -8 -117 -33 -147 -31 -10 1 18 9 62 19 44 10 81 18 83 19 1 1 2
-2 2 -7z m-963 -22 c3 -10 2 -11 -4 -4 -4 7 -17 14 -28 17 -16 5 -15 5 4 4 14
-1 26 -9 28 -17z m2218 -14 c44 -8 97 -18 118 -21 20 -3 37 -10 37 -14 0 -5
-19 -5 -42 0 -92 17 -233 50 -238 56 -3 3 6 3 20 0 14 -3 61 -12 105 -21z
m-1435 5 c0 -5 -23 -11 -50 -13 -28 -1 -50 0 -50 4 0 4 21 9 48 11 26 2 48 4
50 5 1 1 2 -2 2 -7z m-265 -11 c-3 -5 -12 -10 -18 -10 -7 0 -6 4 3 10 19 12
23 12 15 0z m-429 -35 c30 -20 67 -35 84 -35 16 0 32 -4 35 -10 4 -6 -9 -10
-31 -10 -28 0 -50 11 -96 45 -72 54 -68 58 8 10z m369 15 c-16 -4 -41 -8 -55
-8 -22 0 -22 1 5 8 17 4 41 8 55 8 22 0 22 -1 -5 -8z m-85 -15 c0 -7 -132 -46
-138 -40 -5 5 0 7 73 29 56 16 65 18 65 11z m3481 -257 c2 -40 -2 -152 -7
-183 -14 -91 -25 -135 -43 -179 -25 -58 -41 -55 -18 3 9 22 21 75 26 118 6 43
15 113 20 155 6 43 8 85 5 93 -4 8 -1 15 5 15 6 0 12 -10 12 -22z m-4902 -284
c23 -88 21 -111 -2 -37 -23 70 -37 149 -36 191 1 30 3 27 10 -20 4 -31 17 -91
28 -134z m-83 -291 c-59 -90 -106 -177 -168 -313 -92 -203 -104 -230 -124
-297 -9 -32 -19 -51 -21 -43 -5 23 72 240 122 345 62 130 194 345 212 345 2 0
-8 -17 -21 -37z m5072 -49 c-4 -3 -12 5 -18 18 -12 22 -12 22 6 6 10 -10 15
-20 12 -24z m-5076 -28 c-15 -24 -29 -40 -30 -35 -4 9 44 79 53 79 2 0 -8 -20
-23 -44z m5043 -35 c94 -146 228 -431 211 -449 -3 -3 -8 4 -12 14 -34 107
-129 302 -208 427 -30 48 -50 85 -45 81 6 -3 30 -36 54 -73z m120 -56 l17 -30
-25 30 c-14 17 -33 44 -42 60 l-17 30 25 -30 c14 -16 33 -43 42 -60z m168
-510 c33 -115 60 -314 39 -289 -5 5 -14 55 -21 112 -7 56 -21 137 -32 180 -32
125 -31 119 -21 102 5 -8 21 -55 35 -105z m-5646 -37 c-3 -8 -6 -5 -6 6 -1 11
2 17 5 13 3 -3 4 -12 1 -19z m63 5 c0 -5 -5 -15 -10 -23 -7 -12 -9 -10 -7 8 1
19 17 33 17 15z m-70 -47 c-13 -35 -30 -202 -30 -296 0 -47 -4 -80 -10 -80
-14 0 -13 55 5 216 17 154 23 184 36 184 5 0 4 -11 -1 -24z m44 -60 c-4 -31
-11 -56 -16 -56 -5 0 -7 8 -4 18 2 9 8 36 11 60 10 62 17 45 9 -22z m5657
-218 c2 -26 0 -50 -4 -54 -4 -4 -7 19 -7 51 0 69 7 70 11 3z m44 -228 c-8
-165 -17 -252 -24 -222 -3 12 -2 118 3 235 8 170 12 202 18 162 5 -27 6 -106
3 -175z m-5775 53 c0 -38 -5 -75 -10 -83 -7 -10 -10 11 -10 68 0 48 4 82 10
82 6 0 10 -29 10 -67z m29 -413 c12 -58 35 -151 53 -207 17 -57 28 -106 25
-110 -13 -13 -25 12 -42 92 -9 44 -21 87 -25 95 -7 13 -20 79 -45 237 -4 28
-7 150 -4 178 1 11 5 -25 10 -80 4 -55 17 -147 28 -205z m5654 -203 c-9 -48
-21 -87 -26 -87 -5 0 -7 10 -3 23 3 12 13 53 22 90 22 96 28 78 7 -26z m816
-62 c-3 -2 -83 -6 -179 -9 -99 -3 -158 -1 -135 3 43 9 321 14 314 6z m413 -37
c-17 -8 -26 -8 -34 0 -9 9 -4 12 23 11 32 0 33 -1 11 -11z m-7542 -8 c10 -7
-23 -9 -105 -4 -66 4 -122 8 -124 10 -10 9 216 3 229 -6z m7667 4 c-3 -3 -12
-4 -19 -1 -8 3 -5 6 6 6 11 1 17 -2 13 -5z m-7475 -26 c-9 -9 -15 -9 -24 0 -9
9 -7 12 12 12 19 0 21 -3 12 -12z m425 -15 c46 -5 84 -25 72 -38 -3 -2 -34 1
-69 6 -36 6 -86 13 -113 16 -26 3 -50 10 -54 16 -4 6 0 8 9 5 8 -4 21 -2 29 3
8 5 28 7 44 4 17 -4 54 -9 82 -12z m5813 13 c0 -8 -71 -12 -76 -4 -3 4 13 8
35 8 23 0 41 -2 41 -4z m-165 -59 c-8 -19 -19 -38 -24 -42 -6 -3 -4 9 3 27 7
18 16 42 21 53 4 11 9 15 11 9 3 -6 -2 -27 -11 -47z m-7070 33 c-11 -5 -31 -9
-45 -9 -20 -1 -22 1 -10 9 8 5 29 9 45 9 26 0 27 -2 10 -9z m-75 -4 c0 -3 -4
-8 -10 -11 -5 -3 -10 -1 -10 4 0 6 5 11 10 11 6 0 10 -2 10 -4z m1650 -32 c0
-8 -4 -12 -10 -9 -5 3 -10 13 -10 21 0 8 5 12 10 9 6 -3 10 -13 10 -21z m45
-129 c15 -44 33 -87 39 -95 9 -13 9 -13 -5 -2 -15 11 -67 124 -84 182 -6 22
-5 23 7 10 8 -8 27 -51 43 -95z m5356 -105 c-57 -114 -106 -197 -145 -245 -23
-27 -42 -52 -43 -54 -2 -2 -6 -2 -9 1 -3 3 3 14 13 24 41 41 83 104 138 209
69 133 66 127 71 123 1 -2 -9 -28 -25 -58z m-5283 -56 c-4 -3 -12 5 -18 18
-12 22 -12 22 6 6 10 -10 15 -20 12 -24z m-70 9 c4 -15 -64 -18 -119 -6 -34 8
-34 8 16 14 69 9 98 6 103 -8z m-444 -13 c-6 -6 -44 -13 -85 -15 l-74 -4 70
13 c94 18 101 18 89 6z m5861 -20 c-3 -5 -10 -10 -16 -10 -5 0 -9 5 -9 10 0 6
7 10 16 10 8 0 12 -4 9 -10z m93 3 c-10 -2 -26 -2 -35 0 -10 3 -2 5 17 5 19 0
27 -2 18 -5z m472 -3 c24 -8 24 -8 -5 -8 -16 0 -39 3 -50 8 -18 8 -18 9 5 8
14 0 36 -4 50 -8z m-6647 -7 c-7 -2 -19 -2 -25 0 -7 3 -2 5 12 5 14 0 19 -2
13 -5z m802 -61 c22 -31 58 -80 81 -107 22 -28 49 -64 59 -80 l19 -30 -35 33
c-39 35 -185 242 -172 242 4 0 26 -26 48 -58z m6674 -108 c9 -9 -21 -3 -119
26 -57 16 -107 33 -113 39 -5 5 44 -7 110 -26 65 -19 120 -37 122 -39z m-8079
36 c0 -5 -10 -10 -22 -9 -22 0 -22 1 -3 9 11 5 21 9 23 9 1 1 2 -3 2 -9z
m6531 -17 c-5 -10 -24 -34 -41 -53 l-32 -35 23 35 c24 38 50 70 56 70 2 0 -1
-8 -6 -17z m-4866 -184 c5 -8 -11 7 -37 35 -26 28 -48 54 -48 59 0 7 66 -65
85 -94z m4785 77 c0 -2 -8 -10 -17 -17 -16 -13 -17 -12 -4 4 13 16 21 21 21
13z m-4523 -325 c28 -22 54 -45 58 -51 30 -49 -136 85 -211 170 -95 107 -93
110 6 13 52 -51 118 -110 147 -132z m4423 192 c0 -10 -197 -178 -239 -205 -54
-34 -34 -12 42 46 39 31 87 74 105 96 18 22 39 40 46 40 8 0 19 7 26 15 14 17
20 19 20 8z m-110 -48 c-7 -8 -17 -15 -23 -15 -6 0 -2 7 9 15 25 19 30 19 14
0z m-150 -126 c-73 -62 -167 -132 -217 -160 -74 -42 -353 -163 -448 -195 -55
-19 -108 -39 -117 -44 -23 -13 -41 -13 -33 0 3 5 34 18 69 29 177 55 498 211
656 320 63 43 117 79 120 79 3 1 -11 -12 -30 -29z m-4040 -116 c0 -7 -39 17
-46 28 -3 6 5 3 20 -6 14 -10 26 -19 26 -22z m-1234 2 c-11 -8 -28 -27 -38
-42 -10 -16 -18 -23 -18 -16 0 16 49 73 63 73 7 0 3 -7 -7 -15z m1200 -26 c4
-8 1 -8 -14 0 -12 6 -24 16 -28 22 -4 8 -1 8 14 0 12 -6 24 -16 28 -22z m-965
-15 c30 -9 58 -20 64 -25 5 -5 -15 -2 -45 7 -38 11 -79 15 -132 12 -89 -5 -95
4 -10 13 31 3 60 7 63 8 3 0 30 -6 60 -15z m1174 -53 c163 -78 202 -95 285
-122 47 -15 77 -28 68 -28 -64 -3 -478 181 -478 213 0 4 10 1 23 -8 12 -9 58
-34 102 -55z m-99 7 c40 -23 72 -43 70 -45 -3 -3 -145 72 -155 82 -15 15 21 0
85 -37z m-1104 8 c101 -19 183 -54 273 -116 97 -68 123 -98 246 -282 161 -241
235 -335 319 -401 152 -121 271 -153 530 -144 163 6 195 14 312 73 27 14 52
24 54 22 2 -2 -3 -49 -11 -103 -8 -55 -15 -139 -15 -186 l0 -86 -107 -26
c-189 -45 -390 -45 -538 2 -77 24 -264 107 -285 126 -9 8 -21 15 -27 15 -41 0
-235 204 -246 259 -3 14 -25 51 -49 82 -56 73 -98 158 -148 298 -89 250 -200
397 -340 451 -33 13 -61 30 -48 30 3 0 40 -6 80 -14z m254 -17 c25 -17 43 -33
40 -36 -4 -4 -56 29 -90 59 -25 20 10 5 50 -23z m1174 -135 c0 -2 -9 -4 -20
-4 -11 0 -20 4 -20 9 0 5 9 7 20 4 11 -3 20 -7 20 -9z m175 -24 c3 -6 -1 -7
-9 -4 -18 7 -21 14 -7 14 6 0 13 -4 16 -10z m190 -41 c61 -7 113 -15 117 -18
16 -14 -197 3 -235 19 -30 12 -10 12 118 -1z m2443 -4 c-2 -3 -27 -7 -54 -10
l-49 -5 50 13 c47 13 64 13 53 2z m-111 -21 c-3 -3 -12 -4 -19 -1 -8 3 -5 6 6
6 11 1 17 -2 13 -5z m-2174 -21 c-7 -2 -21 -2 -30 0 -10 3 -4 5 12 5 17 0 24
-2 18 -5z m2132 -13 c3 -5 -3 -10 -14 -10 -12 0 -21 5 -21 10 0 6 6 10 14 10
8 0 18 -4 21 -10z m-3528 -72 c61 -90 69 -103 56 -95 -10 6 -113 153 -113 162
0 13 11 0 57 -67z m3424 7 c3 2 5 -5 6 -15 2 -26 1 -26 -27 13 -19 26 -20 29
-3 14 11 -9 22 -15 24 -12z m-3771 -16 c0 -5 23 -66 50 -135 28 -69 50 -133
49 -142 0 -9 -24 44 -54 118 -64 163 -71 185 -56 176 6 -4 11 -12 11 -17z
m3850 -79 c0 -5 -2 -10 -4 -10 -3 0 -8 5 -11 10 -3 6 -1 10 4 10 6 0 11 -4 11
-10z m39 -76 c11 -31 21 -59 21 -62 0 -15 -32 40 -45 78 -22 61 -1 48 24 -16z
m-2209 14 c-6 -13 -13 -31 -16 -40 -4 -10 -10 -18 -15 -18 -5 0 0 18 11 40 22
42 36 55 20 18z m-1176 -74 c3 -8 2 -12 -4 -9 -6 3 -10 10 -10 16 0 14 7 11
14 -7z m1120 -53 c-8 -29 -18 -51 -21 -48 -3 3 3 29 12 57 22 67 30 59 9 -9z
m-970 -119 c-6 -10 -59 38 -86 77 l-31 46 59 -60 c33 -33 59 -61 58 -63z
m-509 48 c3 -5 1 -10 -4 -10 -6 0 -11 5 -11 10 0 6 2 10 4 10 3 0 8 -4 11 -10z
m1446 -27 c-12 -20 -14 -14 -5 12 4 9 9 14 11 11 3 -2 0 -13 -6 -23z m-1429
-7 c7 4 8 2 4 -5 -9 -13 -26 -5 -25 12 0 9 2 8 6 -1 2 -6 10 -9 15 -6z m38
-76 c0 -11 77 -126 118 -178 19 -23 29 -40 21 -37 -23 10 -169 217 -169 240 0
4 7 2 15 -5 8 -7 15 -16 15 -20z m1401 -52 l-9 -33 -1 41 c-1 22 2 44 7 48 12
12 14 -19 3 -56z m1342 37 c-7 -21 -13 -19 -13 6 0 11 4 18 10 14 5 -3 7 -12
3 -20z m-2128 -16 c33 -16 49 -27 36 -23 -42 11 -89 33 -96 44 -8 14 -8 14 60
-21z m3153 -35 l-3 -39 -5 47 c-3 26 -1 43 3 39 5 -5 7 -26 5 -47z m-2538 14
c-25 -11 -61 -22 -80 -24 -28 -2 -21 2 30 21 80 29 111 31 50 3z m595 -46
l-14 -27 -1 32 c0 17 3 39 7 49 6 15 7 15 15 -5 5 -15 3 -32 -7 -49z m542 16
c-3 -8 -6 -5 -6 6 -1 11 2 17 5 13 3 -3 4 -12 1 -19z m-1437 -12 c14 -2 -23
-4 -82 -5 -59 0 -109 2 -111 7 -5 6 135 5 193 -2z m178 9 c-10 -10 -109 -22
-113 -14 -5 7 29 14 89 17 16 1 27 0 24 -3z m286 -30 c-4 -8 -8 -15 -10 -15
-2 0 -4 7 -4 15 0 8 4 15 10 15 5 0 7 -7 4 -15z m1854 -158 c0 -169 -14 -129
-20 56 -2 91 0 114 9 102 7 -11 11 -66 11 -158z m531 29 c1 -112 -6 -91 -11
34 -3 58 -2 92 2 75 4 -16 8 -66 9 -109z m-1939 7 c0 -13 -4 -23 -9 -23 -5 0
-9 16 -9 36 0 25 3 33 9 23 5 -8 9 -24 9 -36z m-1608 -38 c2 3 5 -2 5 -9 0
-11 -5 -13 -19 -5 -10 5 -18 15 -18 21 0 7 4 7 13 -1 8 -6 16 -9 19 -6z m178
-101 c0 -9 -37 15 -51 33 -10 12 -5 11 19 -6 17 -12 32 -24 32 -27z m-94 5 c4
-8 1 -8 -14 0 -12 6 -24 16 -28 22 -4 8 -1 8 14 0 12 -6 24 -16 28 -22z m172
-30 c2 -5 19 -11 38 -15 19 -3 34 -10 34 -14 0 -4 12 -11 26 -14 15 -4 24 -9
22 -11 -6 -6 -147 45 -173 62 -18 12 -17 13 15 7 19 -4 36 -11 38 -15z m1379
-136 c-2 -32 -3 -8 -3 52 0 61 1 87 3 58 2 -29 2 -78 0 -110z m452 -145 c0
-145 4 -283 7 -308 5 -34 4 -42 -6 -34 -21 21 -27 604 -5 604 1 0 4 -118 4
-262z m920 225 c0 -5 -4 -17 -9 -28 -8 -18 -9 -17 -9 8 -1 15 4 27 9 27 6 0
10 -3 9 -7z m-1939 -23 c0 -5 -5 -10 -11 -10 -5 0 -7 5 -4 10 3 6 8 10 11 10
2 0 4 -4 4 -10z m-522 -17 c-10 -2 -26 -2 -35 0 -10 3 -2 5 17 5 19 0 27 -2
18 -5z m177 -12 c3 -5 -8 -9 -25 -9 -21 1 -27 4 -18 9 17 11 35 11 43 0z m55
5 c0 -2 -9 -6 -20 -9 -11 -3 -18 -1 -14 4 5 9 34 13 34 5z m-354 -34 c-10 -2
-22 0 -28 6 -6 6 0 7 19 4 21 -5 23 -7 9 -10z m491 12 c-3 -3 -12 -4 -19 -1
-8 3 -5 6 6 6 11 1 17 -2 13 -5z m2080 -26 c-3 -7 -5 -2 -5 12 0 14 2 19 5 13
2 -7 2 -19 0 -25z m-2417 0 c9 -5 -8 -6 -45 -2 -33 3 -64 10 -68 14 -11 10 95
0 113 -12z m542 -183 c-2 -82 -5 -152 -8 -154 -2 -2 -4 76 -3 175 1 98 4 168
8 154 4 -14 5 -92 3 -175z m2445 23 c-2 -24 -4 -5 -4 42 0 47 2 66 4 43 2 -24
2 -62 0 -85z m-1930 65 c-3 -10 -5 -2 -5 17 0 19 2 27 5 18 2 -10 2 -26 0 -35z
m1410 -15 c-2 -13 -4 -3 -4 22 0 25 2 35 4 23 2 -13 2 -33 0 -45z m-508 -183
c1 -23 -2 -26 -9 -15 -5 8 -9 42 -9 75 l2 60 8 -45 c4 -25 8 -58 8 -75z m452
-46 c-1 -68 -4 -125 -6 -128 -3 -2 -5 56 -5 129 0 73 3 131 6 127 3 -3 5 -61
5 -128z m-1332 49 c-1 -68 -6 -61 -11 15 -2 26 0 47 4 47 5 0 7 -28 7 -62z
m1915 -348 c5 -48 4 -61 -4 -48 -12 20 -27 275 -21 368 4 46 7 19 12 -95 3
-88 9 -189 13 -225z m-2457 258 c-3 -8 -6 -5 -6 6 -1 11 2 17 5 13 3 -3 4 -12
1 -19z m545 -195 c2 -66 0 -119 -4 -116 -5 2 -7 75 -6 161 2 169 6 151 10 -45z
m875 140 c-3 -10 -5 -2 -5 17 0 19 2 27 5 18 2 -10 2 -26 0 -35z m-1440 -135
c-3 -7 -5 -2 -5 12 0 14 2 19 5 13 2 -7 2 -19 0 -25z m1929 -20 c-3 -13 -5
-72 -7 -133 -1 -71 -4 -96 -8 -70 -9 57 -1 225 10 225 5 0 7 -10 5 -22z
m-1939 -50 c-3 -7 -5 -2 -5 12 0 14 2 19 5 13 2 -7 2 -19 0 -25z m1462 -138
c0 -26 -2 -31 -9 -20 -5 8 -9 49 -8 90 l1 75 7 -55 c5 -30 8 -71 9 -90z m1028
48 c-3 -8 -6 -5 -6 6 -1 11 2 17 5 13 3 -3 4 -12 1 -19z m-2018 -107 c-6 -29
-13 -50 -16 -47 -3 3 0 28 7 56 7 28 14 49 16 47 3 -2 -1 -28 -7 -56z m568
-23 c-3 -7 -5 -2 -5 12 0 14 2 19 5 13 2 -7 2 -19 0 -25z m-5 -85 c-2 -32 -9
-65 -14 -73 -9 -15 -1 90 9 117 9 23 10 15 5 -44z m-658 -139 c-27 -49 -101
-134 -117 -134 -5 0 5 12 22 26 35 29 80 94 101 143 8 19 15 30 17 24 2 -6 -8
-33 -23 -59z m1576 -9 c14 -43 16 -55 25 -125 4 -34 3 -39 -4 -20 -19 55 -40
137 -45 180 -5 47 0 39 24 -35z m-2160 9 c-32 -38 -220 -118 -220 -93 0 5 7 9
16 9 22 0 152 57 183 80 32 24 38 25 21 4z m2340 -36 c0 -14 -19 1 -31 25 -12
22 -12 22 10 3 11 -11 21 -23 21 -28z m-1603 -40 c-6 -24 -13 -36 -15 -27 -3
15 14 69 22 69 2 0 -1 -19 -7 -42z m1700 -59 c29 -23 53 -43 53 -45 0 -9 -56
27 -90 56 -51 44 -25 37 37 -11z m-1726 -16 c-12 -20 -14 -14 -5 12 4 9 9 14
11 11 3 -2 0 -13 -6 -23z m-271 -8 c0 -7 -74 -55 -85 -55 -5 0 10 14 35 30 50
32 50 32 50 25z m241 -42 c-8 -15 -10 -15 -11 -2 0 17 10 32 18 25 2 -3 -1
-13 -7 -23z m446 -83 c-19 -46 -39 -86 -45 -88 -6 -2 0 19 14 47 13 28 24 55
24 61 0 16 34 82 37 73 2 -5 -12 -47 -30 -93z m-812 51 c-6 -5 -21 -11 -35
-15 -21 -5 -20 -3 5 9 35 17 42 18 30 6z m1961 -68 c-5 -5 -36 50 -36 64 0 4
9 -7 21 -26 11 -18 18 -35 15 -38z m-2551 47 c3 -5 1 -10 -4 -10 -6 0 -11 5
-11 10 0 6 2 10 4 10 3 0 8 -4 11 -10z m522 -6 c-3 -3 -12 -4 -19 -1 -8 3 -5
6 6 6 11 1 17 -2 13 -5z m-412 -43 c31 -7 54 -15 52 -18 -9 -8 -121 19 -129
31 -13 19 -9 28 6 14 7 -8 39 -20 71 -27z m322 13 c-3 -3 -12 -4 -19 -1 -8 3
-5 6 6 6 11 1 17 -2 13 -5z m2670 -20 c-3 -3 -12 -4 -19 -1 -8 3 -5 6 6 6 11
1 17 -2 13 -5z m93 -4 c0 -5 -5 -10 -11 -10 -5 0 -7 5 -4 10 3 6 8 10 11 10 2
0 4 -4 4 -10z m-423 -287 c-3 -10 -5 -4 -5 12 0 17 2 24 5 18 2 -7 2 -21 0
-30z m-1597 18 c0 -9 -24 -21 -43 -21 -6 0 -2 7 9 15 22 17 34 19 34 6z m1232
-67 c54 -28 122 -44 193 -45 64 -1 67 -2 37 -12 -23 -7 -52 -7 -101 2 -62 11
-171 53 -171 66 0 8 9 6 42 -11z m-1357 -4 c-3 -5 -12 -10 -18 -10 -7 0 -6 4
3 10 19 12 23 12 15 0z m-308 -11 c5 -5 32 -14 59 -19 l49 -9 -53 3 c-33 2
-60 10 -70 20 -9 9 -12 16 -6 16 5 0 15 -5 21 -11z"/>
<path d="M4535 7164 c-394 -10 -776 -54 -950 -111 -77 -25 -194 -86 -260 -136
-247 -187 -404 -526 -398 -857 2 -102 33 -310 61 -400 9 -30 42 -107 73 -170
45 -92 74 -134 140 -208 134 -150 280 -258 480 -355 157 -76 269 -112 478
-153 385 -75 510 -85 1076 -84 438 0 546 8 825 56 465 80 780 253 1030 564
163 204 229 394 245 706 18 362 -81 623 -324 856 -140 135 -242 192 -435 243
-53 14 -131 30 -173 35 -74 10 -1585 20 -1868 14z m165 -43 c0 -8 -119 -3
-129 5 -2 2 26 4 62 4 37 0 67 -4 67 -9z m289 4 c-8 -7 -159 -8 -166 -1 -4 3
33 6 82 6 49 0 86 -2 84 -5z m578 -38 c-3 -10 -131 -16 -532 -25 -291 -7
-1036 -1 -970 7 17 2 257 5 535 7 278 2 582 7 675 11 217 10 296 10 292 0z
m383 3 c-18 -12 -80 -12 -135 -1 -33 7 -22 9 55 10 65 0 90 -2 80 -9z m-2010
-10 c-14 -4 -41 -8 -60 -8 l-35 1 35 7 c19 4 46 8 60 8 l25 0 -25 -8z m2485
-10 c11 -4 29 -11 39 -14 10 -4 16 -9 14 -12 -6 -5 -170 34 -178 43 -7 8 102
-7 125 -17z m-2598 -6 c-3 -3 -12 -4 -19 -1 -8 3 -5 6 6 6 11 1 17 -2 13 -5z
m2441 -19 c45 -4 128 -17 184 -31 56 -14 116 -26 134 -29 34 -4 143 -56 216
-102 24 -16 83 -64 131 -108 183 -168 277 -377 293 -658 16 -270 -84 -578
-250 -769 -138 -158 -379 -307 -639 -394 -157 -53 -258 -75 -487 -108 -244
-35 -411 -46 -730 -46 -645 0 -899 39 -1358 209 -89 33 -221 106 -229 127 -2
7 -32 31 -66 55 -89 62 -247 225 -300 310 -93 151 -117 266 -112 544 4 251 25
353 99 500 110 215 273 345 523 415 245 69 268 71 858 64 421 -5 603 -3 885
10 511 24 640 26 848 11z m383 -31 c36 -14 79 -37 95 -50 22 -18 11 -15 -46
14 -41 21 -88 43 -105 49 -16 6 -26 11 -20 12 5 1 39 -11 76 -25z m-2946 -10
c-33 -6 -73 -14 -90 -18 -23 -6 -26 -5 -13 3 24 16 130 39 148 32 8 -3 -12
-10 -45 -17z m-195 -39 c-14 -8 -32 -14 -40 -14 -8 0 -1 6 15 14 40 18 57 18
25 0z m3455 -104 c38 -35 125 -130 145 -156 8 -11 -26 19 -75 67 -50 47 -106
99 -125 115 -46 36 -60 50 -60 57 0 8 77 -48 115 -83z m-3525 59 c-8 -5 -39
-27 -69 -49 -60 -45 -94 -56 -46 -15 43 37 119 84 125 78 3 -3 -2 -9 -10 -14z
m30 -5 c0 -2 -10 -9 -22 -15 -22 -11 -22 -10 -4 4 21 17 26 19 26 11z m3435
-65 c3 -5 2 -10 -4 -10 -5 0 -13 5 -16 10 -3 6 -2 10 4 10 5 0 13 -4 16 -10z
m-3615 -39 c0 -5 -20 -31 -45 -58 -31 -33 -44 -43 -45 -31 0 10 16 36 36 58
35 39 54 50 54 31z m3856 -236 c35 -61 80 -181 88 -235 4 -31 -2 -19 -19 40
-15 47 -46 122 -70 168 -46 85 -45 105 1 27z m-4090 -92 c-14 -26 -25 -42 -26
-34 0 15 42 93 47 87 3 -2 -7 -26 -21 -53z m7 -48 c-3 -9 -8 -14 -10 -11 -3 3
-2 9 2 15 9 16 15 13 8 -4z m4199 -227 c3 -27 2 -48 -3 -48 -5 0 -9 12 -9 28
0 15 -3 45 -5 67 -4 28 -3 34 3 20 5 -11 11 -41 14 -67z m-4252 -23 c0 -50 -4
-85 -10 -85 -5 0 -10 15 -10 33 0 41 12 137 16 137 2 0 4 -38 4 -85z m4257
-87 c-3 -7 -5 -2 -5 12 0 14 2 19 5 13 2 -7 2 -19 0 -25z m2 -157 c-4 -40 -11
-76 -14 -79 -9 -10 -5 106 5 134 16 41 18 27 9 -55z m-4251 -186 l1 -20 -9 20
c-5 11 -8 31 -8 45 l0 25 8 -25 c4 -14 8 -34 8 -45z m4177 -142 c-17 -58 -105
-222 -131 -244 -20 -16 -18 -13 23 66 85 164 113 221 113 234 0 8 3 12 6 8 3
-3 -2 -32 -11 -64z m-3795 -423 c4 0 10 -10 13 -21 6 -21 5 -21 -21 2 -42 38
-82 83 -82 94 0 5 19 -9 41 -33 23 -23 45 -42 49 -42z m3434 -55 c-44 -38
-164 -112 -164 -100 0 2 30 24 68 48 37 25 81 57 97 71 17 14 35 25 40 25 6 0
-13 -20 -41 -44z m-249 -147 c-264 -140 -856 -247 -1362 -248 -122 0 -224 3
-226 8 -3 4 115 7 261 8 161 0 299 5 347 13 113 18 196 29 305 41 163 19 462
99 625 168 82 35 106 40 50 10z m-2795 -42 c47 -20 91 -36 99 -36 8 0 12 -3 8
-6 -11 -11 -217 68 -217 83 0 3 6 3 13 0 6 -3 50 -22 97 -41z m205 -67 c14 -6
9 -7 -15 -3 -19 4 -44 11 -55 15 -14 6 -9 7 15 3 19 -4 44 -11 55 -15z m75
-19 c11 -8 7 -9 -15 -4 -37 8 -45 14 -19 14 10 0 26 -5 34 -10z m2195 -30 c-3
-5 -12 -10 -18 -10 -7 0 -6 4 3 10 19 12 23 12 15 0z m-1950 -19 c39 -7 95
-16 125 -20 l55 -9 -45 -1 c-49 -1 -216 31 -228 44 -4 5 0 6 8 3 8 -3 47 -11
85 -17z m232 -47 c-3 -3 -12 -4 -19 -1 -8 3 -5 6 6 6 11 1 17 -2 13 -5z m186
-31 c-13 -2 -35 -2 -50 0 -16 2 -5 4 22 4 28 0 40 -2 28 -4z m175 -10 c-21 -2
-57 -2 -80 0 -24 2 -7 4 37 4 44 0 63 -2 43 -4z"/>
<path d="M3893 6479 c-62 -30 -136 -116 -166 -191 -45 -114 -59 -291 -33 -423
18 -92 31 -122 66 -158 17 -17 30 -34 30 -37 0 -14 108 -79 149 -90 95 -25
200 13 260 94 40 52 95 178 106 238 17 100 9 229 -21 323 -17 54 -86 169 -119
198 -72 65 -193 85 -272 46z m137 -34 l25 -14 -30 -1 c-16 0 -54 -7 -82 -14
-64 -17 -69 -6 -10 23 49 24 63 25 97 6z m77 -80 l28 -25 -30 15 c-16 8 -36
15 -43 15 -7 0 -10 5 -7 10 10 16 22 12 52 -15z m-306 -96 c-10 -24 -25 -71
-32 -104 -7 -33 -14 -53 -16 -44 -8 34 49 210 63 196 2 -2 -4 -24 -15 -48z
m410 9 c11 -21 11 -22 -4 -9 -10 7 -17 17 -17 22 0 15 9 10 21 -13z m-41 -45
c0 -20 -16 -8 -23 17 -4 17 -3 19 9 9 8 -6 14 -18 14 -26z m-175 -43 c3 -5 1
-10 -4 -10 -6 0 -11 5 -11 10 0 6 2 10 4 10 3 0 8 -4 11 -10z m-146 -66 c-6
-32 -13 -61 -16 -64 -7 -6 5 94 14 116 11 31 13 6 2 -52z m398 -51 c-3 -10 -5
-4 -5 12 0 17 2 24 5 18 2 -7 2 -21 0 -30z m-420 -45 c-3 -8 -6 -5 -6 6 -1 11
2 17 5 13 3 -3 4 -12 1 -19z m297 -70 c4 -24 3 -38 -4 -38 -5 0 -10 19 -10 42
0 49 5 47 14 -4z m-167 -40 c-3 -8 -6 -5 -6 6 -1 11 2 17 5 13 3 -3 4 -12 1
-19z m100 -75 c-3 -10 -5 -2 -5 17 0 19 2 27 5 18 2 -10 2 -26 0 -35z m63 1
c0 -8 -5 -12 -10 -9 -6 4 -8 11 -5 16 9 14 15 11 15 -7z m-180 -144 c13 -8 13
-10 -2 -10 -9 0 -20 5 -23 10 -8 13 5 13 25 0z m190 -35 c-7 -8 -17 -15 -23
-15 -6 0 -2 7 9 15 25 19 30 19 14 0z m-123 -51 c-3 -3 -12 -4 -19 -1 -8 3 -5
6 6 6 11 1 17 -2 13 -5z"/>
<path d="M6153 6475 c-44 -19 -121 -92 -143 -135 -53 -104 -76 -321 -49 -452
19 -88 71 -189 118 -230 68 -58 195 -76 276 -39 42 19 112 82 142 127 34 52
52 152 53 281 0 130 -8 168 -59 273 -68 144 -225 225 -338 175z m156 -53 c19
-10 37 -23 39 -31 3 -10 -5 -7 -23 7 -32 26 -98 29 -157 8 -46 -16 -40 -3 10
24 41 21 74 19 131 -8z m-179 -46 c0 -3 -4 -8 -10 -11 -5 -3 -10 -1 -10 4 0 6
5 11 10 11 6 0 10 -2 10 -4z m287 -104 c10 -22 17 -45 15 -52 -3 -7 -10 2 -17
21 -7 19 -16 42 -20 52 -14 33 3 17 22 -21z m-367 -53 c-16 -40 -30 -87 -31
-104 -1 -19 -3 -23 -6 -11 -6 22 10 88 37 151 33 76 32 47 0 -36z m197 -131
c-2 -13 -4 -3 -4 22 0 25 2 35 4 23 2 -13 2 -33 0 -45z m-80 10 c-3 -8 -6 -5
-6 6 -1 11 2 17 5 13 3 -3 4 -12 1 -19z m120 0 c-3 -8 -6 -5 -6 6 -1 11 2 17
5 13 3 -3 4 -12 1 -19z m184 -45 c2 -29 0 -55 -3 -59 -4 -3 -8 24 -10 60 -1
36 0 62 4 58 4 -4 8 -31 9 -59z m-124 5 c-2 -13 -4 -5 -4 17 -1 22 1 32 4 23
2 -10 2 -28 0 -40z m-332 -8 c3 -5 1 -10 -4 -10 -6 0 -11 5 -11 10 0 6 2 10 4
10 3 0 8 -4 11 -10z m62 -67 c-2 -16 -4 -5 -4 22 0 28 2 40 4 28 2 -13 2 -35
0 -50z m165 17 c-2 -22 -6 -40 -8 -40 -2 0 -4 18 -4 40 0 22 3 40 8 40 4 0 6
-18 4 -40z m-223 -36 c1 -17 8 -51 16 -74 20 -56 13 -63 -8 -8 -18 48 -34 167
-18 133 5 -11 10 -34 10 -51z m311 -118 c-12 -12 -14 47 -2 120 7 47 7 46 10
-30 2 -46 -2 -84 -8 -90z m-163 102 c-3 -7 -5 -2 -5 12 0 14 2 19 5 13 2 -7 2
-19 0 -25z m-73 -184 c17 -37 17 -55 -1 -32 -16 22 -33 68 -25 68 5 0 16 -16
26 -36z m316 -8 c0 -3 -4 -8 -10 -11 -5 -3 -10 -1 -10 4 0 6 5 11 10 11 6 0
10 -2 10 -4z m-41 -70 c-2 -2 -15 -9 -29 -15 -24 -11 -24 -11 -6 3 16 13 49
24 35 12z m-136 -43 c-7 -2 -19 -2 -25 0 -7 3 -2 5 12 5 14 0 19 -2 13 -5z"/>
<path d="M5036 5596 c-93 -56 -89 -159 7 -195 86 -33 156 9 165 98 3 32 0 61
-8 76 -26 49 -102 59 -164 21z m94 -55 c0 -9 -6 -26 -14 -37 -14 -18 -15 -18
-22 -1 -8 22 12 71 26 62 6 -3 10 -14 10 -24z"/>
<path d="M5305 5239 c-44 -45 -96 -72 -169 -89 -68 -15 -141 9 -212 72 -45 39
-62 48 -94 48 -24 0 -40 -5 -44 -15 -3 -8 -1 -15 4 -15 6 0 10 -9 10 -20 0
-35 89 -115 153 -139 143 -53 324 -9 403 98 36 49 41 70 22 89 -19 19 -30 14
-73 -29z m-405 -83 c0 -5 -16 5 -35 24 -19 19 -35 38 -35 44 0 5 16 -5 35 -24
19 -19 35 -38 35 -44z m200 -62 c0 -2 -13 -4 -30 -4 -16 0 -30 4 -30 8 0 5 14
7 30 4 17 -2 30 -6 30 -8z"/>
</g>
</svg>
