<?xml version="1.0" standalone="no"?>
<!DOCTYPE svg PUBLIC "-//W3C//DTD SVG 20010904//EN"
 "http://www.w3.org/TR/2001/REC-SVG-20010904/DTD/svg10.dtd">
<svg version="1.0" xmlns="http://www.w3.org/2000/svg"
 width="1024.000000pt" height="1024.000000pt" viewBox="0 0 1024.000000 1024.000000"
 preserveAspectRatio="xMidYMid meet">

<g transform="translate(0.000000,1024.000000) scale(0.100000,-0.100000)"
fill="#000000" stroke="none">
<path d="M4280 9167 c-3 -2 -144 -7 -315 -11 -170 -3 -350 -8 -400 -11 -225
-12 -280 -16 -440 -30 -248 -21 -351 -34 -435 -55 -41 -10 -127 -31 -190 -45
-204 -47 -334 -93 -503 -177 -109 -54 -146 -76 -279 -167 -141 -96 -299 -281
-389 -455 -28 -56 -55 -105 -59 -111 -4 -5 -20 -50 -37 -100 -67 -198 -73
-223 -104 -435 -37 -252 -51 -422 -79 -960 -21 -399 -9 -3431 14 -3501 3 -8 7
-50 10 -94 9 -120 23 -256 31 -290 56 -259 170 -556 280 -727 146 -225 298
-378 485 -487 153 -90 191 -108 390 -185 106 -41 355 -97 510 -115 374 -43
325 -42 2234 -48 1891 -5 1844 -6 2334 32 67 5 273 34 282 40 3 2 66 19 140
39 220 57 439 165 635 311 261 196 495 505 599 793 67 186 107 418 131 762 2
36 7 97 10 135 9 120 17 237 20 305 9 150 25 1264 26 1745 0 696 -10 1476 -21
1605 -5 58 -8 112 -7 120 1 8 -2 60 -7 115 -5 55 -10 109 -11 120 -10 121 -72
416 -117 555 -53 168 -139 367 -201 465 -114 182 -286 360 -438 452 -173 105
-443 218 -644 268 -125 32 -326 68 -430 79 -27 3 -93 10 -145 16 -240 26 -819
41 -1830 46 -575 4 -1047 4 -1050 1z m1515 -66 c368 -8 394 -10 467 -33 42
-13 80 -27 85 -32 7 -8 -244 -2 -342 8 -22 3 -112 9 -200 15 -260 18 -297 21
-361 30 -34 5 -360 7 -725 5 -365 -2 -686 0 -714 4 -43 6 -33 8 65 12 165 7
1267 2 1725 -9z m-2138 -7 c-3 -3 -142 -14 -309 -24 -293 -18 -411 -32 -569
-64 -78 -17 -106 -20 -97 -10 5 5 155 39 218 50 166 27 776 67 757 48z m3565
-29 c361 -52 576 -106 831 -207 339 -133 566 -322 737 -612 56 -94 163 -332
157 -349 -2 -6 -18 25 -36 68 -51 123 -148 307 -189 357 -20 25 -57 73 -81
107 -85 118 -239 238 -429 334 -276 141 -742 261 -1162 302 -36 4 -90 10 -120
15 -54 7 -53 8 32 9 47 0 164 -10 260 -24z m-472 -6 c170 -11 380 -32 485 -48
33 -5 105 -16 160 -25 55 -9 171 -34 257 -56 86 -22 159 -40 162 -40 3 0 6 -4
6 -9 0 -5 -16 -5 -37 0 -340 83 -679 131 -1145 164 -109 8 -206 19 -215 25
-19 11 -3 11 327 -11z m-1957 -26 c-7 -2 -21 -2 -30 0 -10 3 -4 5 12 5 17 0
24 -2 18 -5z m-127 -22 c16 -4 -198 -8 -476 -9 -278 -1 -535 -5 -571 -8 -47
-5 -73 -2 -90 7 -23 13 -20 14 41 21 87 8 1060 -1 1096 -11z m517 12 c-56 -2
-151 -2 -210 0 -59 1 -13 3 102 3 116 0 164 -2 108 -3z m-2550 -34 c-7 -7 -69
-27 -139 -46 -70 -18 -173 -53 -228 -77 -56 -24 -112 -47 -125 -51 -58 -18
-242 -105 -286 -135 -73 -50 -198 -174 -261 -256 -30 -40 -59 -76 -64 -79 -18
-11 -10 12 20 56 16 24 30 49 30 55 0 26 131 152 215 207 181 119 445 234 690
301 55 15 105 29 110 31 6 2 19 4 30 4 14 1 16 -2 8 -10z m862 -10 c12 -5 -10
-8 -60 -8 -98 -1 -342 -25 -530 -52 -268 -38 -557 -126 -758 -231 -150 -79
-331 -194 -380 -241 -39 -39 -136 -122 -181 -157 -18 -14 -19 -14 -6 10 29 56
253 254 395 350 142 96 312 173 407 184 95 11 170 27 217 45 56 22 318 88 381
95 25 3 131 9 235 12 105 4 192 8 194 10 4 4 60 -7 86 -17z m968 -6 c-13 -2
-33 -2 -45 0 -13 2 -3 4 22 4 25 0 35 -2 23 -4z m973 -4 c5 -9 -59 -10 -247
-4 -140 4 -256 9 -258 11 -2 2 109 4 247 4 175 0 253 -3 258 -11z m-1006 -19
c0 -5 -7 -10 -15 -10 -8 0 -15 5 -15 10 0 6 7 10 15 10 8 0 15 -4 15 -10z
m2656 -15 c156 -5 374 -37 519 -76 44 -11 82 -22 84 -25 7 -7 -32 -4 -75 6
-143 33 -628 90 -766 90 -40 0 -68 4 -68 10 0 7 28 9 78 5 42 -2 145 -7 228
-10z m-1431 -20 c757 -6 1116 -19 1410 -51 195 -21 219 -25 235 -39 16 -13 40
-18 305 -61 142 -23 320 -70 350 -93 5 -5 60 -34 120 -66 140 -73 220 -132
320 -237 118 -123 154 -174 238 -330 120 -224 179 -518 226 -1118 6 -69 13
-384 16 -700 3 -316 8 -764 12 -995 8 -512 6 -1010 -7 -1455 -12 -391 -27
-586 -67 -845 -40 -262 -189 -646 -316 -815 -78 -102 -225 -249 -327 -325
-139 -103 -361 -208 -535 -253 -121 -32 -437 -81 -630 -98 -124 -11 -2985 -15
-3380 -5 -425 12 -689 33 -910 75 -11 2 -42 7 -70 10 -77 11 -281 74 -364 112
-360 166 -620 432 -797 814 -76 165 -124 323 -124 411 -1 35 -5 96 -10 134
-10 79 -14 140 -35 545 -9 157 -18 317 -21 355 -3 39 -5 540 -5 1115 0 1234
22 1952 70 2286 6 38 13 89 16 114 22 190 71 424 100 485 8 17 30 65 49 108
47 105 155 269 224 341 242 249 621 438 1022 510 175 31 456 63 640 72 74 3
136 8 138 9 4 3 1150 -2 2107 -10z m-3225 -25 c-8 -5 -22 -9 -30 -9 -10 0 -8
3 5 9 27 12 43 12 25 0z m5387 -65 c19 -8 53 -15 74 -15 63 0 205 -63 322
-143 36 -25 70 -40 87 -39 21 0 52 -19 124 -79 181 -151 307 -318 387 -514 20
-51 45 -108 54 -125 9 -18 14 -34 11 -37 -2 -3 -12 10 -22 29 -24 47 -128 202
-184 273 -25 33 -68 92 -94 132 -49 75 -191 213 -281 273 -40 27 -46 29 -30
10 22 -26 13 -22 -50 20 -59 40 -229 124 -313 154 -89 32 -132 53 -132 66 0
13 4 13 47 -5z m213 -17 c10 -6 7 -7 -10 -2 -14 3 -32 11 -40 16 -10 6 -7 7
10 2 14 -3 32 -11 40 -16z m-6500 -482 c0 -3 -4 -8 -10 -11 -5 -3 -10 -1 -10
4 0 6 5 11 10 11 6 0 10 -2 10 -4z m93 -81 c-21 -29 -38 -33 -23 -6 8 16 20
25 38 30 2 1 -5 -10 -15 -24z m-144 -89 c-17 -32 -34 -55 -37 -52 -2 3 10 30
29 60 18 31 35 54 37 52 2 -2 -11 -29 -29 -60z m99 30 c-6 -14 -17 -27 -25
-30 -9 -4 -7 4 7 24 26 36 33 39 18 6z m-187 -19 c-10 -9 -11 -8 -5 6 3 10 9
15 12 12 3 -3 0 -11 -7 -18z m40 -122 c15 10 10 -13 -13 -58 -11 -23 -40 -94
-64 -157 -27 -73 -48 -116 -58 -118 -22 -5 -20 9 10 113 29 99 107 261 112
232 2 -9 8 -15 13 -12z m-158 -20 c-3 -9 -8 -14 -10 -11 -3 3 -2 9 2 15 9 16
15 13 8 -4z m7501 -114 c24 -62 83 -298 107 -426 59 -328 84 -720 84 -1345 0
-379 -16 -910 -26 -855 -4 22 -8 243 -9 490 -2 442 -3 530 -15 970 -5 219 -7
248 -25 420 -37 342 -88 609 -146 757 -19 48 -34 91 -34 95 0 15 47 -63 64
-106z m111 44 c4 -21 3 -25 -3 -15 -15 24 -26 67 -14 55 6 -5 13 -23 17 -40z
m-7638 -112 c-3 -16 -14 -68 -25 -118 -21 -93 -28 -144 -37 -255 -3 -36 -9
-85 -15 -110 -5 -25 -12 -62 -15 -84 -4 -21 -8 -36 -11 -34 -6 7 23 280 41
380 8 47 24 121 35 164 11 42 20 79 20 81 0 1 3 3 6 3 3 0 3 -12 1 -27z m7668
-140 c37 -120 62 -248 91 -466 17 -136 47 -473 60 -684 15 -239 33 -1406 21
-1393 -2 3 -7 115 -11 250 -3 135 -10 308 -16 385 -8 107 -31 762 -32 890 0
18 -10 166 -24 365 -3 41 -9 98 -14 125 -5 28 -11 79 -14 115 -11 121 -69 375
-112 490 -13 36 -24 70 -24 75 0 27 53 -80 75 -152z m56 31 c26 -77 60 -264
59 -328 -1 -36 -16 3 -29 74 -7 36 -28 128 -47 204 -19 77 -34 144 -34 150 0
27 23 -19 51 -100z m-7587 -3 c-4 -17 -9 -30 -11 -27 -3 2 -2 19 2 36 9 41 17
33 9 -9z m-24 -97 c-15 -66 -56 -354 -70 -484 -6 -58 -17 -262 -25 -455 -8
-192 -19 -363 -23 -380 -9 -29 -9 -29 -16 -7 -4 13 -5 34 -2 48 4 15 2 24 -5
24 -21 0 7 617 36 795 8 50 24 150 35 223 17 111 67 298 78 288 1 -2 -2 -25
-8 -52z m-100 -31 c-11 -17 -11 -17 -6 0 3 10 7 26 7 35 1 15 2 15 6 0 2 -10
-1 -25 -7 -35z m7829 -395 c11 -112 22 -286 24 -388 5 -192 -1 -174 -23 65
-15 173 -18 213 -25 375 -4 80 -9 154 -11 165 -4 18 -4 18 6 3 6 -9 19 -108
29 -220z m-7982 -550 c-3 -7 -5 -2 -5 12 0 14 2 19 5 13 2 -7 2 -19 0 -25z m0
-40 c-3 -8 -6 -5 -6 6 -1 11 2 17 5 13 3 -3 4 -12 1 -19z m48 -440 c-5 -233
-11 -547 -14 -698 l-6 -275 -8 285 c-10 332 -9 491 3 838 9 235 12 272 27 272
3 0 2 -190 -2 -422z m-46 308 c-2 -149 -17 -201 -18 -65 -1 98 6 169 16 169 2
0 3 -47 2 -104z m7888 -168 c-3 -7 -5 -2 -5 12 0 14 2 19 5 13 2 -7 2 -19 0
-25z m17 -258 c4 -85 13 -256 21 -380 8 -124 15 -307 15 -407 0 -197 -23 -623
-41 -770 -6 -51 -9 -99 -6 -107 3 -8 2 -27 -2 -43 -6 -22 -9 -12 -16 52 -25
266 -26 588 -2 1160 9 226 17 466 17 534 0 68 2 122 4 120 2 -2 7 -74 10 -159z
m-7779 -1032 c2 -453 6 -895 10 -983 14 -374 34 -760 45 -897 6 -64 10 -154
10 -200 1 -45 7 -116 14 -155 7 -40 9 -73 6 -73 -14 0 -50 131 -65 235 -17
117 -28 326 -45 885 -14 444 -14 1829 0 1865 5 14 10 56 10 92 0 37 3 64 6 60
3 -3 7 -376 9 -829z m-135 47 c0 -340 -3 -505 -10 -505 -7 0 -10 167 -10 511
0 311 4 508 9 504 6 -3 10 -212 11 -510z m8047 413 c-3 -8 -6 -5 -6 6 -1 11 2
17 5 13 3 -3 4 -12 1 -19z m0 -50 c-3 -7 -5 -2 -5 12 0 14 2 19 5 13 2 -7 2
-19 0 -25z m-31 -1215 c-4 -357 -11 -684 -16 -728 -5 -52 -6 -2 -3 140 4 199
3 224 -14 265 -18 42 -18 68 -12 420 6 332 11 406 35 528 2 12 7 22 11 22 3 0
3 -291 -1 -647z m-7967 200 c-1 -223 -5 -366 -10 -349 -17 61 -11 726 7 726 2
0 3 -170 3 -377z m7810 -198 c-2 -117 1 -179 9 -187 8 -8 12 -1 16 23 22 141
25 125 21 -106 -2 -132 -6 -258 -9 -280 -2 -22 -7 -101 -11 -175 -4 -74 -15
-173 -26 -220 -19 -88 -82 -288 -74 -235 8 55 15 119 20 190 2 39 9 135 15
215 8 123 29 751 30 903 0 26 2 47 5 47 3 0 5 -79 4 -175z m-7809 -698 c6
-203 9 -374 7 -380 -4 -12 -19 165 -37 424 -6 81 -9 225 -9 320 l2 174 13 -85
c7 -47 18 -251 24 -453z m7944 -190 c-19 -215 -63 -558 -90 -702 -26 -137 -96
-346 -111 -331 -3 2 2 26 11 53 35 110 59 219 92 418 19 116 43 260 53 320 11
61 23 156 27 212 4 56 11 100 15 97 5 -3 6 -33 3 -67z m-150 -399 c-3 -70 -41
-226 -90 -367 -44 -132 -118 -265 -174 -316 -12 -11 4 19 35 65 31 47 70 114
87 149 31 64 48 141 32 141 -5 0 -28 -42 -52 -92 -23 -50 -44 -89 -47 -86 -3
3 10 38 29 79 19 41 43 106 52 145 9 38 39 124 66 190 26 67 48 127 48 134 0
6 4 9 8 6 5 -3 8 -24 6 -48z m-7750 -46 c13 -45 31 -93 40 -106 19 -30 32
-101 19 -109 -11 -7 -4 -55 20 -154 24 -100 5 -73 -26 35 -21 73 -87 392 -87
421 0 18 14 -19 34 -87z m146 -213 c0 -6 -4 -7 -10 -4 -5 3 -10 11 -10 16 0 6
5 7 10 4 6 -3 10 -11 10 -16z m-14 -104 c10 -33 27 -66 36 -73 10 -7 18 -17
18 -22 0 -6 36 -93 79 -195 79 -184 178 -357 250 -438 19 -21 31 -40 28 -43
-8 -8 -165 191 -242 306 -35 52 -82 133 -105 180 -56 117 -128 359 -114 382 9
14 27 -21 50 -97z m7579 25 c-10 -33 -20 -58 -22 -56 -2 2 4 31 14 64 10 33
20 59 22 56 2 -2 -4 -31 -14 -64z m-7504 -428 c275 -362 352 -447 514 -559 50
-34 99 -69 110 -78 19 -14 19 -15 -5 -6 -14 5 -74 34 -135 65 -121 62 -155 93
-337 299 -114 128 -188 247 -251 404 -51 125 -58 181 -8 65 26 -61 64 -127
112 -190z m7442 215 c4 -12 -91 -177 -162 -280 -50 -73 -147 -172 -169 -174
-19 -2 -18 2 11 52 18 30 76 110 129 178 53 69 114 150 134 181 40 58 48 65
57 43z m25 -37 c-7 -10 -14 -17 -17 -15 -4 4 18 35 25 35 2 0 -1 -9 -8 -20z
m-35 -77 c-29 -59 -75 -136 -95 -157 -10 -11 -18 -24 -18 -30 0 -5 -2 -7 -5
-4 -3 3 16 41 42 84 27 44 57 96 67 117 10 21 20 36 23 34 2 -3 -4 -22 -14
-44z m-7292 -55 c49 -98 174 -257 288 -366 93 -89 349 -268 450 -314 35 -16
61 -31 58 -34 -8 -8 -258 96 -318 132 -31 19 -61 34 -66 34 -18 0 -198 194
-259 280 -57 80 -184 289 -184 303 0 17 11 4 31 -35z m7188 -195 c-38 -65
-130 -174 -219 -263 -222 -219 -564 -395 -906 -464 -170 -34 -447 -65 -626
-70 -152 -4 -167 -3 -88 5 107 10 361 36 490 49 215 23 482 98 676 190 72 34
184 104 269 169 79 60 271 247 353 344 36 42 67 77 69 77 3 0 -5 -17 -18 -37z
m-264 -23 c-10 -11 -20 -18 -23 -15 -7 6 18 35 31 35 5 0 2 -9 -8 -20z m4 -62
c-7 -13 -29 -45 -51 -72 -183 -232 -441 -395 -771 -486 -135 -38 -165 -35 -38
4 244 73 657 334 810 513 59 68 68 76 50 41z m51 -21 c0 -2 -10 -12 -22 -23
l-23 -19 19 23 c18 21 26 27 26 19z m-170 -51 c0 -2 -8 -10 -17 -17 -16 -13
-17 -12 -4 4 13 16 21 21 21 13z m-315 -221 c-52 -43 -345 -182 -460 -219 -60
-19 -148 -42 -195 -51 -47 -9 -119 -25 -160 -36 -41 -11 -106 -24 -145 -29
-119 -15 -1152 3 -1185 21 -14 8 65 10 605 14 558 5 1021 64 1240 158 81 34
263 128 300 153 32 23 32 15 0 -11z m-5797 -149 c37 -18 101 -46 142 -61 41
-15 80 -32 85 -38 7 -7 4 -8 -7 -4 -9 3 -36 11 -60 17 -71 20 -266 118 -235
120 4 0 38 -15 75 -34z m345 -5 c67 -17 156 -35 197 -41 41 -6 98 -15 125 -19
47 -8 48 -9 12 -10 -77 -2 -463 72 -484 93 -12 12 31 5 150 -23z m-333 -85
c47 -20 93 -36 103 -36 9 0 17 -4 17 -10 0 -16 -145 35 -200 70 -40 26 -35 24
80 -24z m730 20 c0 -3 -4 -8 -10 -11 -5 -3 -10 -1 -10 4 0 6 5 11 10 11 6 0
10 -2 10 -4z m-273 -36 c54 -11 123 -27 153 -35 88 -25 276 -35 885 -50 492
-13 500 -13 483 -31 -9 -8 -925 -10 -998 -2 -377 44 -601 86 -702 133 l-33 15
57 -5 c31 -3 101 -14 155 -25z m1048 -20 c3 -5 -3 -10 -15 -10 -12 0 -18 5
-15 10 3 6 10 10 15 10 5 0 12 -4 15 -10z m58 -7 c-7 -2 -19 -2 -25 0 -7 3 -2
5 12 5 14 0 19 -2 13 -5z m1277 -4 c-32 -13 -1006 -14 -1150 -1 -76 7 70 9
535 10 434 0 632 -2 615 -9z m170 -1 c0 -4 -31 -8 -70 -8 -40 0 -70 4 -70 10
0 6 28 9 70 8 39 -1 70 -6 70 -10z m-2713 -14 c-3 -3 -12 -4 -19 -1 -8 3 -5 6
6 6 11 1 17 -2 13 -5z m4828 -14 c-11 -5 -38 -8 -60 -8 -34 0 -36 1 -15 8 14
4 41 8 60 8 28 1 31 -1 15 -8z m-4770 -40 c27 -7 27 -8 5 -8 -14 0 -36 4 -50
8 -20 6 -21 8 -5 8 11 0 34 -4 50 -8z m3464 1 c25 -16 -205 -24 -486 -16 -150
4 -276 11 -279 16 -7 12 746 12 765 0z m-1079 -16 c19 -1 107 -7 195 -14 278
-19 813 -34 1015 -28 134 4 184 3 160 -4 -43 -12 -569 -12 -745 -1 -71 5 -281
10 -465 11 -319 1 -651 19 -745 41 -34 8 456 3 585 -5z m-510 -44 c118 -6 232
-12 253 -13 21 -1 41 -6 44 -11 3 -5 -22 -6 -58 -2 -35 4 -284 8 -554 10 -660
4 -798 8 -460 15 149 3 335 6 415 8 80 2 242 -1 360 -7z"/>
<path d="M7412 7919 c-73 -14 -182 -78 -253 -149 -85 -84 -156 -222 -166 -322
-6 -73 17 -211 46 -268 10 -19 21 -47 24 -61 15 -61 123 -166 223 -217 87 -45
158 -63 264 -69 97 -5 111 -3 180 22 206 74 320 191 370 378 19 68 22 100 18
187 -4 94 -8 112 -38 175 -39 79 -144 193 -221 237 -134 79 -314 114 -447 87z
m280 -81 c34 -12 23 -13 -117 -13 -84 0 -152 1 -151 2 1 2 20 10 42 18 46 18
168 14 226 -7z m-352 -2 c0 -2 -21 -20 -47 -40 -85 -66 -195 -236 -225 -346
l-17 -65 3 66 c3 56 10 80 47 150 46 86 116 168 184 212 38 24 55 32 55 23z
m197 -63 c-4 -3 -38 -16 -75 -28 -38 -12 -90 -39 -122 -63 -30 -23 -56 -40
-57 -38 -2 2 1 15 6 29 13 33 69 76 123 92 45 14 136 20 125 8z m334 -35 c36
-37 65 -78 56 -78 -1 0 -31 27 -65 60 -34 33 -55 60 -47 60 8 0 33 -19 56 -42z
m-238 25 c-7 -2 -21 -2 -30 0 -10 3 -4 5 12 5 17 0 24 -2 18 -5z m54 -9 c-3
-3 -12 -4 -19 -1 -8 3 -5 6 6 6 11 1 17 -2 13 -5z m-30 -55 c155 -62 202 -122
219 -282 8 -75 -18 -162 -70 -231 -77 -103 -168 -143 -292 -127 -129 16 -212
72 -261 178 -51 109 -41 205 33 313 52 77 79 99 159 134 66 28 162 35 212 15z
m177 -30 c117 -103 147 -294 75 -480 -22 -56 -41 -87 -69 -113 -22 -20 -44
-36 -49 -36 -5 0 -17 -3 -27 -7 -19 -7 13 40 66 99 14 15 41 53 60 85 35 57
35 59 35 173 0 102 -3 121 -25 165 -13 28 -48 74 -76 103 -63 62 -56 69 10 11z
m167 -46 c62 -90 85 -247 54 -368 -44 -167 -206 -316 -393 -360 -65 -15 -83
-16 -150 -5 -42 7 -86 17 -97 22 -16 7 -14 7 7 3 124 -24 248 -12 346 32 78
36 166 123 202 198 37 77 64 190 55 230 -3 16 -10 70 -15 119 -6 63 -16 103
-34 138 -31 59 -18 54 25 -9z m-804 -5 c-17 -42 -37 -124 -47 -195 -14 -98 -5
-151 43 -257 34 -72 64 -103 150 -155 61 -37 42 -44 -25 -9 -75 40 -177 138
-206 199 -18 36 -22 63 -22 135 0 100 15 162 53 218 15 20 29 46 32 57 4 10
11 19 17 19 5 0 7 -6 5 -12z m232 -574 c9 -9 -53 7 -63 17 -5 5 5 4 24 -1 18
-5 35 -12 39 -16z m110 -20 c9 -8 -65 -2 -84 6 -13 6 -2 7 30 3 28 -3 52 -7
54 -9z m158 -31 c-10 -10 -109 -43 -129 -43 -10 0 -37 8 -60 18 l-43 17 110 6
c61 3 114 6 119 7 5 1 6 -1 3 -5z m18 -33 c-3 -5 -12 -10 -18 -10 -7 0 -6 4 3
10 19 12 23 12 15 0z"/>
<path d="M4900 7554 c-228 -24 -561 -103 -759 -179 -98 -37 -286 -129 -375
-182 -381 -229 -757 -691 -909 -1118 -41 -114 -90 -299 -106 -395 -45 -277
-51 -332 -56 -520 -10 -332 29 -581 147 -919 79 -229 208 -456 387 -680 171
-215 473 -456 731 -586 226 -113 426 -183 588 -205 99 -13 389 -31 604 -37
193 -5 384 17 586 69 64 16 135 33 157 37 79 14 379 151 525 239 464 282 759
682 962 1306 84 258 113 461 113 791 0 284 0 285 -96 730 -6 28 -21 77 -34
110 -13 33 -42 110 -66 170 -23 61 -51 122 -61 137 -10 14 -18 29 -18 33 0 3
-33 56 -73 118 -203 310 -473 577 -776 767 -106 66 -285 150 -416 196 -111 39
-350 96 -495 118 -120 18 -396 18 -560 0z m513 -40 c125 -11 88 -19 -71 -16
-102 2 -203 -3 -326 -18 -99 -11 -181 -18 -184 -15 -10 10 56 27 153 39 112
15 313 19 428 10z m-602 -33 c-8 -14 -27 -20 -80 -25 -38 -3 -112 -19 -163
-35 -51 -16 -145 -43 -208 -61 -145 -40 -323 -102 -419 -146 -41 -19 -76 -32
-78 -30 -4 4 95 59 160 90 145 67 408 150 607 192 190 40 194 40 181 15z m679
-26 c56 -9 133 -25 169 -35 l66 -20 -130 6 c-71 3 -169 9 -217 15 -47 5 -169
9 -270 10 -187 1 -205 12 -44 25 45 3 83 8 85 10 11 10 250 2 341 -11z m365
-51 c107 -23 178 -50 325 -121 147 -72 272 -154 414 -271 97 -81 277 -259 304
-301 9 -14 37 -53 62 -86 88 -114 110 -154 183 -322 91 -209 103 -242 117
-323 6 -36 18 -84 26 -108 17 -51 17 -55 4 -47 -13 8 -53 142 -46 153 10 16
-148 392 -191 456 -93 138 -178 241 -337 407 -167 175 -293 274 -487 385 -61
35 -298 124 -329 124 -9 0 -31 11 -50 24 -19 13 -50 27 -67 30 -18 4 -35 12
-39 17 -3 6 4 8 18 4 12 -3 55 -12 93 -21z m-630 -13 c10 -17 -14 -22 -152
-31 -373 -25 -526 -57 -858 -182 -183 -69 -215 -79 -215 -70 1 4 22 17 48 29
132 61 203 93 257 116 116 48 377 103 610 127 61 6 119 13 130 14 50 8 174 5
180 -3z m350 -52 c22 -4 76 -13 120 -19 78 -12 199 -45 260 -72 155 -68 359
-201 459 -300 l81 -80 -92 74 c-94 75 -285 190 -408 246 -104 46 -348 119
-445 132 -47 7 -103 16 -125 20 -34 7 -29 8 35 8 41 -1 92 -5 115 -9z m-150
-44 c190 -31 434 -98 560 -155 86 -39 270 -149 365 -219 105 -78 303 -278 386
-391 99 -133 131 -185 221 -361 126 -244 195 -440 241 -689 62 -338 15 -846
-110 -1180 -53 -142 -168 -332 -311 -515 -187 -240 -394 -417 -646 -554 -194
-105 -512 -211 -706 -235 -106 -14 -382 -18 -505 -8 -167 14 -440 69 -543 110
-479 192 -853 513 -1132 970 -132 215 -230 520 -259 802 -18 175 -17 381 3
550 34 283 78 427 228 740 215 446 506 716 1027 950 192 86 426 148 731 194
42 6 402 -1 450 -9z m-1246 -59 c-2 -2 -65 -35 -140 -73 -199 -102 -341 -204
-543 -387 -60 -55 -106 -94 -101 -86 28 47 136 155 238 238 222 181 310 238
440 283 72 25 119 36 106 25z m2062 -93 c72 -43 160 -102 197 -131 175 -139
452 -441 452 -492 0 -6 -12 -2 -27 9 -40 32 -40 17 1 -32 20 -24 36 -49 36
-54 0 -23 -108 97 -155 170 -77 121 -193 265 -276 340 -76 70 -275 209 -354
247 -25 12 -45 24 -45 27 0 13 50 -11 171 -84z m-2396 27 c-3 -5 -11 -10 -16
-10 -6 0 -7 5 -4 10 3 6 11 10 16 10 6 0 7 -4 4 -10z m49 -148 c-12 -9 -59
-46 -105 -81 -153 -117 -375 -355 -487 -522 -79 -118 -170 -293 -223 -434 -49
-127 -114 -336 -124 -399 -3 -17 -11 -58 -17 -91 -7 -33 -12 -157 -12 -278 -1
-130 -4 -205 -9 -185 -15 60 -13 507 1 568 31 124 86 276 170 470 158 365 172
392 215 433 22 21 46 49 54 63 48 94 326 349 474 437 66 39 99 49 63 19z
m-279 -38 c-22 -19 -54 -41 -70 -49 -17 -7 -39 -23 -50 -35 -34 -37 -115 -102
-115 -92 0 22 152 157 200 177 27 11 52 24 56 28 4 4 10 7 13 7 3 0 -12 -16
-34 -36z m-332 -326 c-4 -7 -26 -40 -49 -73 -56 -80 -105 -172 -160 -302 -77
-179 -84 -201 -134 -397 -27 -104 -53 -193 -59 -199 -5 -5 -15 -6 -22 -2 -14
9 -6 176 12 234 85 270 205 517 297 611 13 14 45 51 70 83 41 52 64 75 45 45z
m3737 -319 c62 -96 150 -282 157 -329 4 -27 2 -31 -6 -20 -17 24 -13 4 13 -60
28 -68 71 -215 81 -275 4 -22 16 -76 27 -120 18 -73 20 -100 14 -310 -7 -226
-37 -498 -44 -397 -2 24 2 75 7 112 41 260 -43 767 -176 1072 -18 42 -33 79
-33 83 0 16 34 -22 47 -53 7 -18 18 -30 23 -27 12 8 13 52 1 59 -10 7 -139
214 -166 266 -9 19 -21 52 -25 73 -7 37 -7 37 11 21 11 -10 42 -52 69 -95z
m173 -41 c63 -127 147 -360 147 -405 0 -16 -20 29 -44 102 -25 72 -65 179 -90
239 -25 60 -46 111 -46 112 0 13 11 -3 33 -48z m153 -605 c10 -27 19 -68 21
-93 2 -25 8 -98 13 -162 12 -143 13 -228 2 -228 -5 0 -12 64 -16 143 -7 153
-27 315 -45 360 -6 15 -7 27 -2 27 5 0 17 -21 27 -47z m-4521 -67 c-2 -97 -38
-426 -48 -426 -11 0 -3 336 8 385 4 17 9 37 10 45 1 8 6 33 10 55 8 35 9 37
15 16 3 -14 5 -48 5 -75z m4585 26 c0 -5 7 -53 15 -108 33 -221 34 -464 4
-704 -18 -148 -50 -296 -81 -373 -20 -50 -19 -21 1 59 38 151 81 843 61 999
-6 50 -13 100 -16 113 -2 12 0 22 6 22 5 0 10 -4 10 -8z m-4637 -717 c13 -43
33 -314 23 -304 -8 8 -41 187 -57 309 -7 53 -8 128 -3 200 l8 115 11 -150 c7
-82 15 -159 18 -170z m98 144 c16 -181 59 -412 113 -607 25 -92 121 -344 162
-424 13 -26 24 -50 24 -53 0 -34 -88 122 -152 267 -106 244 -141 365 -162 560
-16 149 -19 204 -17 328 2 119 18 84 32 -71z m4458 -314 c-5 -27 -14 -85 -20
-127 -7 -43 -15 -78 -19 -78 -7 0 -4 26 21 170 12 73 18 95 23 89 2 -2 0 -26
-5 -54z m-77 -196 c-11 -46 -25 -99 -31 -118 -9 -30 -9 -33 9 -28 25 6 25 5
-4 -79 -49 -146 -178 -375 -265 -474 -30 -34 -30 -32 10 40 62 114 123 246
157 340 29 79 116 354 130 410 4 16 7 19 9 9 2 -9 -5 -54 -15 -100z m-4347
-131 c19 -62 71 -185 114 -273 44 -88 78 -161 76 -163 -10 -10 -147 255 -199
384 -31 78 -47 164 -31 164 2 0 20 -51 40 -112z m-40 -56 c28 -87 143 -306
238 -453 150 -235 417 -526 606 -663 16 -11 55 -42 87 -67 120 -94 291 -203
411 -261 68 -34 122 -63 119 -65 -2 -2 -21 4 -43 15 -21 11 -56 25 -78 32 -66
21 -203 88 -274 134 -36 23 -95 60 -130 81 -36 21 -88 57 -115 80 -28 22 -63
48 -78 58 -47 30 -320 299 -380 374 -142 178 -271 427 -369 712 -32 92 -33
100 -20 86 5 -6 16 -34 26 -63z m355 -379 c30 -53 75 -122 100 -152 25 -31 52
-64 60 -75 106 -132 282 -311 375 -381 184 -138 360 -239 568 -325 43 -18 77
-34 75 -35 -4 -5 -118 31 -194 60 -130 50 -353 166 -439 228 -171 123 -294
258 -447 492 -86 130 -173 285 -160 285 4 -1 32 -44 62 -97z m3890 7 c0 -5 -5
-10 -11 -10 -5 0 -7 5 -4 10 3 6 8 10 11 10 2 0 4 -4 4 -10z m26 -95 c-73
-139 -107 -190 -206 -314 -104 -130 -187 -213 -315 -317 -139 -111 -203 -153
-370 -240 -158 -82 -336 -150 -516 -195 -146 -36 -340 -69 -399 -68 -25 1 -34
4 -20 6 14 2 68 10 120 19 127 20 268 51 365 82 110 34 365 148 461 206 43 26
118 71 166 99 120 72 425 354 511 472 28 39 81 111 118 162 37 50 81 114 96
142 15 28 32 51 36 51 5 0 -16 -47 -47 -105z m-3826 -146 c34 -50 59 -93 56
-96 -5 -6 -135 186 -165 244 -32 65 -25 65 14 0 19 -32 62 -98 95 -148z m3739
144 c-34 -56 -126 -180 -140 -188 -17 -11 19 49 57 93 17 21 45 58 63 85 38
56 52 63 20 10z m-240 -245 c-15 -27 -287 -306 -313 -320 -17 -9 -17 -8 -5 9
14 18 321 331 327 332 1 1 -3 -9 -9 -21z m-69 2 c0 -5 -5 -10 -11 -10 -5 0 -7
5 -4 10 3 6 8 10 11 10 2 0 4 -4 4 -10z m-296 -301 c-16 -17 -58 -54 -94 -82
-36 -28 -79 -63 -96 -79 -28 -27 -133 -77 -314 -150 -103 -41 -177 -63 -295
-88 -55 -11 -110 -23 -122 -26 -13 -2 -23 -1 -23 4 0 5 30 14 68 22 323 63
581 179 822 370 41 33 77 60 79 60 3 0 -8 -14 -25 -31z m-2184 -369 c80 -35
162 -68 183 -75 31 -9 36 -14 25 -22 -17 -14 -109 21 -286 109 -114 57 -177
97 -100 65 18 -8 98 -43 178 -77z m140 9 c163 -42 321 -68 498 -82 83 -6 152
-14 152 -17 0 -3 -63 -4 -140 -3 -146 2 -333 23 -434 49 -71 18 -207 71 -221
86 -7 8 -4 9 10 4 11 -5 72 -21 135 -37z m1409 -54 c-23 -12 -155 -45 -324
-81 -90 -20 -405 -23 -530 -6 l-70 9 55 2 c390 8 565 25 775 74 101 24 138 24
94 2z m-512 -11 c-3 -3 -12 -4 -19 -1 -8 3 -5 6 6 6 11 1 17 -2 13 -5z m-492
-88 c61 -8 179 -21 262 -27 84 -7 151 -15 149 -17 -15 -15 -348 -16 -421 -2
-27 5 -94 17 -147 26 -59 10 -102 22 -110 32 -12 14 -4 15 72 9 47 -4 135 -13
195 -21z"/>
<path d="M5014 6569 c-39 -4 -113 -18 -165 -30 -52 -11 -114 -25 -139 -29 -64
-11 -232 -75 -310 -117 -214 -116 -372 -276 -541 -548 -64 -103 -149 -341
-168 -470 -39 -276 -12 -530 84 -780 78 -202 226 -418 367 -533 221 -181 417
-279 653 -328 157 -33 472 -25 680 17 275 56 641 292 802 517 89 124 183 295
183 333 0 8 4 19 8 25 57 67 89 464 58 701 -9 67 -20 133 -25 145 -5 13 -26
75 -46 138 -45 142 -87 230 -161 340 -125 186 -242 303 -418 420 -106 70 -198
112 -336 154 -176 52 -342 67 -526 45z m416 -73 c153 -37 210 -59 349 -134
116 -62 134 -76 261 -202 142 -142 226 -253 295 -393 47 -95 46 -151 -1 -61
-29 55 -139 217 -215 316 -197 258 -529 440 -899 494 l-95 14 100 -4 c59 -3
143 -15 205 -30z m-202 -11 c168 -27 339 -81 450 -143 63 -35 44 -38 -24 -4
-168 84 -500 148 -631 123 -50 -10 -276 -21 -268 -13 2 2 46 15 97 27 113 28
240 31 376 10z m-678 -114 c-212 -115 -303 -185 -491 -378 -133 -137 -139
-138 -50 -13 83 119 248 268 390 354 66 41 221 104 256 105 11 1 -36 -30 -105
-68z m625 21 c19 -6 -20 -8 -111 -4 -124 4 -265 -6 -326 -24 -10 -3 -18 -1
-18 4 0 6 26 17 58 26 45 12 91 15 212 11 85 -2 169 -9 185 -13z m250 -24
c291 -88 396 -150 546 -322 38 -44 67 -81 66 -83 -2 -2 -28 21 -58 49 -161
154 -370 279 -596 354 -172 58 -147 58 42 2z m-780 -48 c-3 -6 -37 -25 -73
-43 -37 -19 -107 -60 -157 -93 -105 -69 -121 -77 -80 -39 63 57 301 203 312
191 3 -3 2 -10 -2 -16z m642 -4 c183 -33 310 -84 473 -193 125 -84 242 -200
327 -328 97 -145 138 -239 179 -410 22 -92 24 -115 20 -295 -5 -237 -13 -273
-103 -462 -94 -199 -227 -372 -342 -446 -14 -9 -32 -23 -40 -30 -19 -19 -245
-126 -306 -145 -81 -26 -223 -47 -320 -48 -287 -1 -480 46 -685 167 -235 138
-388 300 -475 503 -71 167 -95 294 -95 503 0 356 182 729 468 960 43 34 79 65
80 70 2 4 9 8 16 8 8 0 25 9 39 20 25 20 174 85 249 109 129 42 335 48 515 17z
m725 -251 c53 -61 140 -175 132 -175 -6 0 -53 54 -74 86 -8 13 -44 56 -80 95
-36 40 -55 67 -44 58 12 -8 42 -37 66 -64z m-1828 -82 c-16 -21 -37 -48 -47
-60 -11 -12 -25 -31 -31 -41 -6 -11 -24 -39 -40 -63 -70 -105 -133 -246 -161
-360 -29 -121 -45 -156 -45 -98 1 107 79 316 173 462 36 57 161 197 174 197 2
0 -8 -17 -23 -37z m-319 -234 c-9 -17 -18 -29 -21 -27 -6 6 20 58 29 58 4 0 0
-14 -8 -31z m2405 -69 c12 -30 30 -73 40 -95 53 -112 69 -364 37 -580 l-14
-100 4 200 4 200 -35 138 c-19 76 -43 150 -52 165 -10 15 -21 52 -25 82 -4 30
-10 64 -14 75 -16 48 36 -33 55 -85z m-2439 7 c-10 -9 -11 -8 -5 6 3 10 9 15
12 12 3 -3 0 -11 -7 -18z m-17 -189 c-29 -122 -64 -328 -74 -442 -7 -71 -8
-50 -5 94 4 208 18 286 64 379 17 33 33 61 34 61 2 0 -7 -42 -19 -92z m2652
-123 c22 -104 25 -142 23 -282 -1 -90 -6 -184 -11 -210 -41 -212 -68 -287
-165 -446 -74 -123 -119 -181 -205 -263 -120 -116 -208 -182 -328 -246 -72
-38 -245 -103 -235 -89 3 5 31 19 63 31 155 58 335 173 439 281 73 76 184 219
217 280 50 94 137 329 162 440 24 107 25 479 1 604 -9 50 -17 95 -16 100 2 20
30 -82 55 -200z m-56 13 c0 -38 -5 -34 -13 10 -4 21 -3 31 3 27 6 -3 10 -20
10 -37z m-8 -340 c-6 -29 -14 -82 -17 -117 -3 -35 -23 -118 -45 -185 -40 -120
-146 -354 -155 -344 -3 3 18 54 46 114 72 153 115 290 140 440 24 148 27 159
36 150 3 -3 1 -30 -5 -58z m-2532 -41 c1 -114 17 -197 63 -326 50 -138 101
-226 188 -329 66 -78 198 -186 280 -228 95 -50 41 -35 -76 22 -135 64 -188
109 -276 228 -85 114 -179 348 -179 442 0 18 -6 65 -14 106 -14 74 -11 172 5
162 5 -3 9 -38 9 -77z m-94 -64 c-11 -11 -19 6 -11 24 8 17 8 17 12 0 3 -10 2
-21 -1 -24z m44 -40 c0 -22 -2 -25 -10 -13 -13 20 -13 40 0 40 6 0 10 -12 10
-27z m-43 -5 c-3 -8 -6 -5 -6 6 -1 11 2 17 5 13 3 -3 4 -12 1 -19z m79 -168
c12 -41 30 -92 38 -112 26 -60 17 -68 -9 -9 -35 75 -75 207 -74 239 1 25 2 24
11 -8 6 -19 21 -69 34 -110z m2471 113 c-19 -67 -40 -133 -44 -130 -3 4 26
126 34 140 8 13 14 7 10 -10z m-2507 -143 c79 -235 179 -393 333 -530 127
-113 164 -138 352 -234 192 -98 310 -132 502 -146 136 -9 235 -2 398 29 53 10
111 14 104 7 -5 -5 -130 -28 -279 -52 -106 -17 -235 -14 -383 11 -256 42 -444
130 -658 308 -67 55 -200 207 -245 279 -72 114 -164 335 -164 394 0 21 2 35 4
33 2 -2 19 -47 36 -99z m2385 -149 c-24 -48 -104 -169 -115 -176 -20 -12 -9 9
58 110 65 101 90 128 57 66z m-144 -288 c-31 -58 -171 -160 -289 -211 -84 -37
-118 -43 -52 -9 49 26 168 108 270 186 69 54 87 62 71 34z m-1543 -225 c42
-17 101 -39 130 -50 29 -12 50 -23 48 -26 -7 -6 -182 55 -251 88 -73 35 -32
28 73 -12z m1332 2 c-65 -51 -244 -130 -325 -143 -16 -3 -52 -10 -80 -17 -63
-15 -437 -16 -565 -1 -99 10 -187 32 -159 38 8 2 42 -1 75 -6 87 -15 530 -6
634 12 130 24 305 74 368 107 66 34 88 38 52 10z"/>
</g>
</svg>
