<?xml version="1.0" standalone="no"?>
<!DOCTYPE svg PUBLIC "-//W3C//DTD SVG 20010904//EN"
 "http://www.w3.org/TR/2001/REC-SVG-20010904/DTD/svg10.dtd">
<svg version="1.0" xmlns="http://www.w3.org/2000/svg"
 width="1024.000000pt" height="1024.000000pt" viewBox="0 0 1024.000000 1024.000000"
 preserveAspectRatio="xMidYMid meet">

<g transform="translate(0.000000,1024.000000) scale(0.100000,-0.100000)"
fill="#000000" stroke="none">
<path d="M5565 8819 c-77 -3 -459 -6 -850 -7 -620 -2 -1170 -12 -1415 -26
-627 -37 -732 -50 -963 -121 -142 -43 -192 -67 -316 -153 -193 -134 -338 -302
-403 -467 -25 -64 -66 -277 -82 -430 -43 -400 -71 -1179 -71 -1980 0 -1126 25
-2670 44 -2773 5 -26 17 -103 26 -172 44 -325 151 -635 264 -761 103 -115 308
-253 466 -314 127 -49 211 -70 392 -99 388 -62 917 -81 1933 -70 750 8 867 9
1260 5 387 -5 1223 8 1385 20 441 33 566 61 782 175 289 151 451 286 530 439
73 144 140 391 172 635 36 274 41 447 46 1685 2 583 7 1136 11 1228 4 92 2
351 -5 575 -7 224 -16 596 -21 827 -8 401 -9 428 -39 604 -34 204 -47 254 -98
386 -85 217 -193 353 -397 504 -111 82 -312 160 -516 199 -102 20 -151 26
-315 37 -44 3 -98 7 -120 10 -22 2 -96 7 -165 11 -69 3 -128 8 -131 10 -3 2
-172 6 -375 10 -203 3 -486 9 -629 13 -143 3 -323 4 -400 0z m-782 -36 c-7 -2
-21 -2 -30 0 -10 3 -4 5 12 5 17 0 24 -2 18 -5z m114 0 c-20 -2 -52 -2 -70 0
-17 2 0 4 38 4 39 0 53 -2 32 -4z m1201 0 c-16 -2 -40 -2 -55 0 -16 2 -3 4 27
4 30 0 43 -2 28 -4z m355 -10 c-29 -2 -78 -2 -110 0 -32 2 -8 3 52 3 61 0 87
-1 58 -3z m-2588 -23 c4 -6 -29 -9 -92 -8 l-98 2 80 6 c44 3 85 7 92 8 6 1 15
-2 18 -8z m697 3 c-112 -2 -292 -2 -400 0 -108 1 -17 2 203 2 220 0 309 -1
197 -2z m286 0 c-16 -2 -40 -2 -55 0 -16 2 -3 4 27 4 30 0 43 -2 28 -4z
m-1219 -7 c-2 -2 -34 -7 -71 -11 -46 -4 -68 -3 -68 4 0 7 27 11 72 11 39 0 69
-2 67 -4z m278 -2 c-3 -3 -12 -4 -19 -1 -8 3 -5 6 6 6 11 1 17 -2 13 -5z
m2136 -1 c-7 -2 -21 -2 -30 0 -10 3 -4 5 12 5 17 0 24 -2 18 -5z m847 -3 c58
-6 117 -11 133 -13 15 -2 27 1 27 6 0 4 4 5 10 2 5 -3 67 -13 137 -21 235 -27
189 -30 -132 -8 -135 8 -361 15 -545 14 -305 -1 -450 6 -450 19 0 10 705 11
820 1z m-3670 -10 c-8 -5 -49 -9 -90 -9 -59 1 -68 3 -40 9 55 12 148 12 130 0z
m158 3 c-10 -2 -28 -2 -40 0 -13 2 -5 4 17 4 22 1 32 -1 23 -4z m2575 0 c59
-3 107 -10 107 -14 0 -5 -35 -6 -77 -2 -43 4 -100 7 -128 7 -67 0 -405 -14
-480 -19 -64 -4 -130 3 -120 14 15 14 528 25 698 14z m1553 -28 c85 -7 158
-16 161 -19 4 -3 0 -6 -8 -6 -8 -1 0 -7 16 -15 l30 -15 -37 5 c-85 13 -356 57
-398 65 -51 10 -49 10 236 -15z m-3443 8 c-13 -2 -33 -2 -45 0 -13 2 -3 4 22
4 25 0 35 -2 23 -4z m85 0 c-10 -2 -26 -2 -35 0 -10 3 -2 5 17 5 19 0 27 -2
18 -5z m900 0 c-10 -2 -28 -2 -40 0 -13 2 -5 4 17 4 22 1 32 -1 23 -4z m65 0
c-7 -2 -21 -2 -30 0 -10 3 -4 5 12 5 17 0 24 -2 18 -5z m100 0 c-13 -2 -33 -2
-45 0 -13 2 -3 4 22 4 25 0 35 -2 23 -4z m-1000 -10 c-7 -2 -21 -2 -30 0 -10
3 -4 5 12 5 17 0 24 -2 18 -5z m110 0 c-13 -2 -35 -2 -50 0 -16 2 -5 4 22 4
28 0 40 -2 28 -4z m180 0 c-13 -2 -35 -2 -50 0 -16 2 -5 4 22 4 28 0 40 -2 28
-4z m287 -4 c-65 -11 -178 -11 -185 1 -4 6 35 10 112 9 93 -1 108 -3 73 -10z
m128 4 c-10 -2 -28 -2 -40 0 -13 2 -5 4 17 4 22 1 32 -1 23 -4z m-1638 -14
c-47 -4 -155 -15 -240 -23 -85 -8 -211 -20 -280 -26 -156 -14 -212 -24 -325
-60 -225 -72 -371 -148 -465 -244 -25 -25 -48 -46 -52 -46 -4 0 -27 -21 -50
-47 -24 -27 -61 -67 -84 -90 -22 -23 -46 -59 -52 -80 -10 -33 -82 -157 -82
-142 0 13 39 118 55 150 10 18 37 53 61 76 24 23 44 48 44 55 0 22 111 133
180 180 130 89 374 213 447 227 26 6 62 10 78 10 46 0 69 3 80 11 27 21 438
55 680 57 l90 0 -85 -8z m2679 -15 c2 -2 -12 -4 -33 -4 -22 0 -35 4 -31 10 5
9 52 4 64 -6z m341 -1 c3 -3 -68 -3 -157 -2 -90 2 -163 7 -163 11 0 8 311 -1
320 -9z m770 2 c221 -12 280 -17 286 -27 5 -7 -28 -8 -102 -4 -201 12 -387 28
-433 37 -46 8 -2 7 249 -6z m-1477 -2 c-7 -2 -19 -2 -25 0 -7 3 -2 5 12 5 14
0 19 -2 13 -5z m95 0 c-10 -2 -26 -2 -35 0 -10 3 -2 5 17 5 19 0 27 -2 18 -5z
m-1908 -13 c-72 -10 -347 -10 -300 0 19 4 107 7 195 7 115 0 145 -2 105 -7z
m1427 -4 c4 -3 -30 -6 -75 -6 -45 0 -82 4 -82 9 0 10 147 7 157 -3z m-410 -2
c-3 -3 -12 -4 -19 -1 -8 3 -5 6 6 6 11 1 17 -2 13 -5z m186 -1 c-13 -2 -35 -2
-50 0 -16 2 -5 4 22 4 28 0 40 -2 28 -4z m634 -9 c-3 -3 -12 -4 -19 -1 -8 3
-5 6 6 6 11 1 17 -2 13 -5z m101 -1 c-16 -2 -40 -2 -55 0 -16 2 -3 4 27 4 30
0 43 -2 28 -4z m290 0 c-10 -2 -26 -2 -35 0 -10 3 -2 5 17 5 19 0 27 -2 18 -5z
m1872 -21 c54 -15 104 -41 97 -49 -2 -2 -24 5 -48 15 -24 10 -66 24 -94 32
-27 7 -54 17 -60 22 -12 11 23 4 105 -20z m-4820 -2 c-82 -18 -225 -28 -236
-18 -5 6 125 25 206 31 102 8 111 4 30 -13z m4135 1 c233 -13 427 -38 453 -58
21 -17 -42 -12 -328 22 -193 24 -252 29 -425 40 -49 3 -92 9 -95 12 -3 3 38 3
90 0 52 -3 190 -10 305 -16z m465 4 c127 -19 312 -77 296 -92 -3 -3 -25 1 -48
10 -24 9 -105 32 -182 51 -76 19 -141 38 -145 42 -3 3 3 4 14 1 11 -3 40 -9
65 -12z m-1090 -20 c25 -2 135 -9 245 -14 110 -6 245 -15 300 -21 55 -5 147
-15 205 -20 58 -6 157 -20 220 -30 63 -11 142 -22 175 -24 105 -8 225 -56 355
-142 190 -125 269 -233 365 -499 49 -135 66 -322 85 -940 6 -187 15 -374 19
-415 12 -111 14 -306 14 -1435 0 -1184 -3 -1351 -32 -1850 -34 -595 -48 -683
-140 -893 -65 -148 -237 -336 -394 -430 -144 -87 -185 -103 -346 -138 -154
-33 -187 -36 -631 -64 -204 -12 -852 -20 -2005 -24 -1241 -4 -1597 5 -2140 49
-304 25 -461 66 -620 160 -132 80 -232 162 -293 241 -62 80 -134 223 -156 309
-25 94 -91 812 -103 1110 -3 77 -5 806 -5 1620 -1 1286 2 1510 16 1710 9 127
17 328 17 448 -1 220 12 361 43 478 22 81 85 213 144 301 116 173 384 359 577
401 109 24 333 55 521 71 94 9 184 21 200 28 16 7 76 15 134 19 110 6 3152 1
3230 -6z m1505 -38 c69 -40 148 -97 142 -103 -9 -9 -206 99 -232 127 -29 31
-29 32 -5 24 14 -4 57 -25 95 -48z m-6005 -91 c0 -2 -7 -7 -16 -10 -8 -3 -12
-2 -9 4 6 10 25 14 25 6z m189 -15 c-13 -10 -53 -33 -89 -51 -36 -19 -81 -46
-100 -62 -57 -47 -59 -48 -65 -48 -17 0 -101 -80 -147 -139 -69 -88 -75 -94
-48 -44 62 113 321 329 423 353 49 12 51 11 26 -9z m5785 -16 c30 -13 64 -33
75 -44 10 -10 26 -21 35 -23 20 -4 120 -87 136 -113 9 -15 5 -13 -16 6 -16 14
-47 36 -69 49 -22 14 -46 31 -53 40 -11 12 -12 13 -6 0 5 -8 -14 4 -41 26 -28
23 -68 51 -90 62 -55 29 -39 27 29 -3z m107 10 c16 -9 27 -20 24 -25 -3 -5 4
-11 15 -15 20 -6 106 -71 141 -106 11 -11 17 -25 13 -31 -4 -6 -3 -8 3 -5 9 6
53 -35 53 -49 0 -3 11 -20 25 -38 27 -36 30 -46 15 -46 -5 0 -10 6 -10 14 0 7
-7 19 -15 26 -9 7 -23 28 -31 46 -9 19 -22 34 -29 34 -6 0 -20 9 -30 20 -10
11 -15 20 -11 20 11 0 -92 83 -131 105 -18 11 -33 24 -33 31 0 6 -10 16 -22
22 -13 6 -19 11 -15 11 4 1 21 -6 38 -14z m-6240 -302 c-32 -43 -69 -97 -81
-120 -12 -24 -27 -43 -32 -43 -14 0 -7 16 35 81 31 48 123 159 132 159 2 0
-22 -35 -54 -77z m-162 -174 c-16 -34 -33 -59 -35 -56 -6 5 30 82 48 105 21
26 17 10 -13 -49z m6721 6 c0 -5 -5 -3 -10 5 -5 8 -10 20 -10 25 0 6 5 3 10
-5 5 -8 10 -19 10 -25z m119 -199 c18 -85 37 -199 42 -255 9 -86 8 -104 -5
-123 -16 -22 -16 -22 -16 12 0 26 3 31 10 20 9 -13 10 -13 10 1 0 8 -5 20 -11
26 -5 5 -19 70 -30 144 -24 164 -46 269 -70 332 -25 64 -23 68 10 29 23 -27
34 -59 60 -186z m-94 124 c7 -24 7 -24 -9 -5 -8 11 -16 27 -16 35 0 20 16 1
25 -30z m134 -75 c0 -11 -7 0 -15 25 -7 25 -13 52 -13 60 1 21 27 -60 28 -85z
m-6930 11 c-11 -25 -25 -46 -29 -46 -4 0 4 22 18 49 33 62 41 59 11 -3z m-74
-133 l-16 -28 7 40 c6 38 9 53 15 100 1 11 4 -3 6 -32 3 -35 -1 -61 -12 -80z
m45 67 c0 -5 -2 -10 -4 -10 -3 0 -8 5 -11 10 -3 6 -1 10 4 10 6 0 11 -4 11
-10z m6967 -32 c-3 -7 -5 -2 -5 12 0 14 2 19 5 13 2 -7 2 -19 0 -25z m10 -50
c-3 -7 -5 -2 -5 12 0 14 2 19 5 13 2 -7 2 -19 0 -25z m-7016 -130 c-17 -117
-20 -130 -32 -122 -7 4 -10 -16 -9 -58 1 -34 -3 -76 -8 -93 -10 -30 -10 -30
-10 10 -1 66 23 267 29 260 4 -3 13 17 20 44 19 74 23 54 10 -41z m7046 -1
c-2 -7 0 -24 4 -39 4 -15 4 -30 -1 -33 -4 -2 -10 9 -14 26 -9 47 -7 71 5 64 5
-4 8 -12 6 -18z m-121 -142 c13 -78 32 -677 23 -750 l-6 -50 -2 55 c-2 30 -5
118 -7 195 -11 390 -16 496 -24 557 -6 37 -9 86 -9 110 1 40 2 38 10 -17 4
-33 11 -78 15 -100z m-6889 48 c-3 -10 -5 -4 -5 12 0 17 2 24 5 18 2 -7 2 -21
0 -30z m7030 -148 l0 -110 -8 85 c-10 117 -10 193 1 160 4 -14 8 -74 7 -135z
m-7027 115 c0 -5 -2 -10 -4 -10 -3 0 -8 5 -11 10 -3 6 -1 10 4 10 6 0 11 -4
11 -10z m-63 -47 c-3 -10 -5 -4 -5 12 0 17 2 24 5 18 2 -7 2 -21 0 -30z m7026
-40 c-6 -48 -19 -50 -21 -3 0 17 4 28 9 25 5 -4 9 2 9 11 0 10 2 15 4 13 3 -2
2 -23 -1 -46z m-6967 -228 c-6 -205 -8 -220 -20 -232 -5 -4 -6 10 -3 32 4 22
7 135 8 250 1 162 3 202 11 175 7 -22 8 -105 4 -225z m-56 129 c0 -8 -4 -12
-10 -9 -5 3 -10 10 -10 16 0 5 5 9 10 9 6 0 10 -7 10 -16z m7045 -66 c2 -34 6
-164 9 -288 4 -124 9 -288 11 -365 4 -84 2 -135 -3 -127 -5 8 -13 13 -18 13
-5 -1 -10 104 -11 231 -1 128 -4 300 -6 382 -3 84 -1 142 4 135 7 -11 9 -10 9
3 0 9 -4 20 -10 23 -11 7 -14 48 -3 58 11 12 15 0 18 -65z m-7055 -73 c10 6 1
-1109 -10 -1180 -5 -35 -8 7 -9 140 -1 105 -4 395 -7 645 -3 250 -2 470 3 490
7 31 8 28 11 -33 2 -37 7 -65 12 -62z m7117 -360 c0 -152 -2 -198 -8 -150 -7
68 -13 439 -8 520 5 93 17 -167 16 -370z m-7065 81 c3 -14 1 -31 -3 -38 -6 -8
-9 1 -9 25 0 42 6 48 12 13z m-4 -163 l-2 -108 -5 100 c-3 55 -5 103 -3 108 9
22 12 -4 10 -100z m6942 -125 c0 -39 -3 -69 -6 -65 -9 8 -10 137 -2 137 5 0 8
-32 8 -72z m139 -150 c-1 -31 -1 -31 -8 -8 -5 14 -6 28 -4 33 9 15 13 6 12
-25z m-50 -65 c-1 -54 -2 -55 -9 -23 -8 31 -4 80 6 80 2 0 4 -26 3 -57z m48
-15 c-3 -8 -6 -5 -6 6 -1 11 2 17 5 13 3 -3 4 -12 1 -19z m-57 -93 c13 -69 21
-225 10 -200 -8 19 -9 19 -9 -2 -1 -13 3 -23 8 -23 5 0 10 -144 10 -330 1
-223 -2 -330 -9 -330 -6 0 -9 -26 -8 -67 l1 -68 7 65 c7 61 7 60 6 -27 -1 -83
-9 -116 -21 -80 -2 6 -5 269 -7 582 -3 314 -3 561 -1 550 2 -11 8 -42 13 -70z
m-7018 -12 c-2 -18 -8 -30 -13 -27 -11 6 -12 49 -2 84 l7 25 6 -24 c3 -14 4
-39 2 -58z m6945 -45 c-2 -24 -4 -7 -4 37 0 44 2 63 4 43 2 -21 2 -57 0 -80z
m-7048 -469 c-1 -417 -2 -459 -16 -447 -14 12 -15 55 -8 408 4 217 8 409 10
425 1 17 3 40 4 53 0 12 3 22 6 22 3 0 5 -207 4 -461z m7188 314 c-3 -10 -5
-4 -5 12 0 17 2 24 5 18 2 -7 2 -21 0 -30z m-7088 -340 c0 -133 -4 -217 -9
-201 -4 14 -7 68 -6 120 2 51 3 141 4 201 1 59 4 107 7 107 3 0 5 -102 4 -227z
m6959 -298 c0 -121 -3 -267 -7 -325 l-8 -105 -3 115 c-1 63 -3 129 -3 145 0
17 1 179 3 360 3 292 4 313 10 180 4 -82 8 -249 8 -370z m119 433 c-3 -8 -6
-5 -6 6 -1 11 2 17 5 13 3 -3 4 -12 1 -19z m0 -205 c-2 -32 -3 -8 -3 52 0 61
1 87 3 58 2 -29 2 -78 0 -110z m0 -200 c-2 -21 -4 -6 -4 32 0 39 2 55 4 38 2
-18 2 -50 0 -70z m-7133 -78 c13 -337 18 -785 10 -785 -11 0 -11 -4 -19 520
-4 228 -5 413 -2 410 3 -3 8 -68 11 -145z m60 108 c-5 -5 -12 -12 -16 -18 -4
-6 -8 -2 -8 8 0 9 7 17 17 17 9 0 12 -3 7 -7z m-11 -133 c3 -47 1 -103 -3
-125 -5 -29 -8 -3 -9 89 0 71 1 127 3 125 2 -2 6 -42 9 -89z m-94 -297 c-1
-179 -3 -216 -11 -173 -5 30 -8 90 -5 133 2 50 0 77 -7 78 -6 0 -5 3 2 6 8 3
12 32 12 94 0 49 2 89 5 89 3 0 4 -102 4 -227z m7145 105 c-5 -18 -8 -49 -8
-68 5 -193 1 -1011 -5 -1065 -8 -66 -8 -67 -10 -20 -5 158 -2 1165 3 1174 15
24 27 11 20 -21z m-7057 -55 c-2 -16 -4 -5 -4 22 0 28 2 40 4 28 2 -13 2 -35
0 -50z m6994 -463 c1 -94 -1 -174 -5 -177 -7 -8 -8 6 -11 222 -1 93 2 159 6
148 4 -12 9 -99 10 -193z m-7028 -132 c2 -18 0 -36 -6 -40 -8 -4 -8 -14 -1
-30 6 -13 8 -48 5 -78 -9 -79 -19 -41 -20 78 -2 97 11 138 22 70z m7024 -170
c-2 -24 -4 -7 -4 37 0 44 2 63 4 43 2 -21 2 -57 0 -80z m-6980 50 c-2 -13 -4
-5 -4 17 -1 22 1 32 4 23 2 -10 2 -28 0 -40z m0 -75 c-3 -10 -5 -4 -5 12 0 17
2 24 5 18 2 -7 2 -21 0 -30z m-43 -60 c4 -30 2 -49 -5 -54 -8 -5 -8 -12 0 -27
13 -25 15 -65 2 -58 -5 3 -7 15 -4 26 3 12 0 20 -7 20 -8 0 -10 21 -8 70 1 39
5 70 9 70 3 0 9 -21 13 -47z m7023 -25 c-2 -13 -4 -3 -4 22 0 25 2 35 4 23 2
-13 2 -33 0 -45z m-6980 -35 c-2 -16 -4 -5 -4 22 0 28 2 40 4 28 2 -13 2 -35
0 -50z m7080 0 c-2 -16 -4 -5 -4 22 0 28 2 40 4 28 2 -13 2 -35 0 -50z m-7108
-294 c1 -177 -12 -400 -21 -364 -4 18 -5 1 -3 -42 3 -43 1 -73 -4 -73 -18 0
-22 84 -10 175 15 114 18 413 4 419 -6 3 -4 8 3 14 8 5 13 18 12 28 -4 38 3
38 11 -1 4 -22 8 -92 8 -156z m-32 -186 c-3 -10 -5 -2 -5 17 0 19 2 27 5 18 2
-10 2 -26 0 -35z m7000 -35 c-3 -7 -5 -2 -5 12 0 14 2 19 5 13 2 -7 2 -19 0
-25z m47 -202 c-2 -93 -6 -172 -9 -174 -3 -3 -5 80 -5 184 0 121 4 184 10 174
5 -8 7 -87 4 -184z m-6974 53 c0 -6 -4 -7 -10 -4 -5 3 -10 11 -10 16 0 6 5 7
10 4 6 -3 10 -11 10 -16z m7017 -96 c-3 -10 -5 -4 -5 12 0 17 2 24 5 18 2 -7
2 -21 0 -30z m-7018 -63 c-1 -50 -4 -89 -6 -86 -7 6 -11 149 -6 163 10 27 13
10 12 -77z m-113 -98 c-12 -11 -13 4 -7 68 l6 65 3 -64 c2 -35 1 -66 -2 -69z
m7034 66 c0 -24 -5 -50 -10 -58 -7 -11 -10 2 -10 43 0 31 4 57 10 57 6 0 10
-19 10 -42z m97 -35 c-3 -10 -5 -4 -5 12 0 17 2 24 5 18 2 -7 2 -21 0 -30z
m-7012 -64 c1 -11 -1 -22 -5 -24 -3 -2 -7 10 -8 28 -2 17 1 28 5 24 4 -4 7
-17 8 -28z m7020 -131 c-3 -84 -14 -196 -22 -248 -8 -52 -15 -105 -15 -117 0
-13 -4 -23 -9 -23 -11 0 -11 10 1 130 5 52 12 160 15 240 7 158 9 170 26 170
9 0 10 -39 4 -152z m-118 90 c-3 -7 -5 -2 -5 12 0 14 2 19 5 13 2 -7 2 -19 0
-25z m-6899 -30 c0 -18 2 -54 5 -81 3 -39 2 -45 -9 -36 -21 17 -19 149 2 149
1 0 2 -15 2 -32z m6959 -20 c-3 -8 -6 -5 -6 6 -1 11 2 17 5 13 3 -3 4 -12 1
-19z m-7080 -40 c-3 -7 -5 -2 -5 12 0 14 2 19 5 13 2 -7 2 -19 0 -25z m7070
-10 c-3 -8 -6 -5 -6 6 -1 11 2 17 5 13 3 -3 4 -12 1 -19z m-6993 -80 c4 -17 2
-28 -4 -28 -5 0 -10 14 -10 32 0 36 4 35 14 -4z m57 -125 l14 -118 5 70 5 70
8 -80 c4 -44 12 -109 17 -145 29 -195 19 -200 -24 -10 -27 117 -45 238 -46
298 0 63 8 30 21 -85z m6934 41 c-8 -103 -52 -331 -61 -321 -6 6 25 203 40
257 7 25 12 59 11 75 -2 29 2 45 10 45 2 0 2 -25 0 -56z m-7058 24 c-3 -8 -6
-5 -6 6 -1 11 2 17 5 13 3 -3 4 -12 1 -19z m77 -54 c7 -70 16 -119 45 -249 11
-49 25 -121 31 -160 17 -104 19 -110 62 -208 16 -38 28 -71 25 -73 -2 -3 -21
35 -42 83 -21 49 -41 97 -46 108 -5 11 -11 31 -13 45 -3 14 -15 52 -27 85 -14
40 -22 85 -23 135 0 41 -4 77 -8 80 -4 3 -10 55 -14 115 -6 117 0 141 10 39z
m-17 -86 c-3 -7 -5 -2 -5 12 0 14 2 19 5 13 2 -7 2 -19 0 -25z m7020 -130 c-3
-8 -6 -5 -6 6 -1 11 2 17 5 13 3 -3 4 -12 1 -19z m-12 -68 c-4 -23 -9 -39 -11
-37 -3 2 -2 23 2 46 4 23 9 40 11 37 3 -3 2 -23 -2 -46z m-68 -168 c-17 -89
-37 -132 -96 -211 -22 -30 -38 -58 -34 -64 3 -6 1 -7 -4 -4 -6 4 -18 -5 -28
-19 -9 -14 -19 -24 -21 -21 -3 3 14 33 36 68 53 82 126 233 141 293 18 74 22
46 6 -42z m55 -29 c-12 -37 -28 -77 -37 -88 -19 -23 -19 -26 20 82 16 45 31
80 33 78 3 -2 -5 -35 -16 -72z m-6976 40 c-10 -10 -19 5 -10 18 6 11 8 11 12
0 2 -7 1 -15 -2 -18z m88 -255 c-3 -5 -1 -8 4 -8 5 0 17 -19 28 -42 10 -24 27
-50 37 -58 10 -8 19 -23 21 -33 1 -10 9 -22 16 -27 8 -5 11 -12 8 -15 -4 -4
-20 7 -36 23 -17 17 -27 33 -24 37 4 3 2 9 -4 13 -16 11 -74 128 -74 148 1 16
3 15 14 -6 8 -14 12 -28 10 -32z m6772 -52 c-53 -78 -88 -106 -46 -38 18 30
39 56 46 59 7 3 16 14 20 25 3 11 8 17 12 14 3 -3 -11 -30 -32 -60z m-216 -10
c0 -2 -8 -10 -17 -17 -16 -13 -17 -12 -4 4 13 16 21 21 21 13z m-6210 -216
c36 -24 68 -48 71 -52 7 -10 111 -52 204 -83 39 -13 60 -23 49 -24 -12 -1 -73
16 -136 38 -109 36 -165 60 -144 61 15 0 -27 29 -43 30 -12 0 -56 34 -121 94
-14 13 -33 38 -44 57 -17 31 -13 28 40 -22 33 -30 88 -75 124 -99z m6410 137
c0 -2 -19 -21 -42 -42 l-41 -40 33 43 c28 35 50 52 50 39z m-300 -41 c0 -3 -4
-8 -10 -11 -5 -3 -10 -1 -10 4 0 6 5 11 10 11 6 0 10 -2 10 -4z m111 -70 c-32
-32 -96 -78 -160 -115 -99 -57 -230 -116 -238 -107 -2 2 31 23 74 46 43 23 89
52 103 65 14 12 61 43 105 68 44 25 95 58 114 72 58 42 59 28 2 -29z m-161 30
c0 -8 -94 -72 -145 -100 -44 -25 -47 -25 -20 -4 24 19 154 105 163 107 1 1 2
-1 2 -3z m-240 -161 c0 -20 -203 -89 -305 -104 -200 -28 -426 -38 -510 -22
-30 5 -7 9 100 14 332 18 521 43 584 76 16 9 52 20 129 40 1 1 2 -1 2 -4z
m-5625 -59 c33 -8 105 -24 160 -36 55 -13 118 -29 140 -36 23 -8 52 -14 65
-14 14 0 32 -5 40 -10 11 -7 2 -8 -30 -5 -25 2 -76 7 -115 10 -89 6 -220 39
-301 76 -63 28 -86 47 -41 35 12 -3 49 -13 82 -20z m228 -13 c-7 -2 -19 -2
-25 0 -7 3 -2 5 12 5 14 0 19 -2 13 -5z m192 -29 c26 -19 10 -18 -95 6 l-85
20 80 -6 c44 -3 89 -12 100 -20z m130 5 c5 -7 -12 -8 -51 -5 -75 8 -82 16 -11
16 31 0 59 -5 62 -11z m160 -9 c25 -6 20 -8 -27 -9 -31 0 -60 4 -63 9 -7 12
45 12 90 0z m4051 -29 c-3 -4 -54 -8 -113 -8 -68 -1 -97 2 -78 7 40 10 197 11
191 1z m889 0 c-6 -5 -21 -12 -35 -15 l-25 -7 25 15 c28 17 50 21 35 7z
m-4250 -17 c21 -6 100 -10 364 -18 85 -3 156 -7 158 -9 14 -15 -243 -15 -521
-2 -341 17 -498 37 -233 30 82 -2 145 0 142 5 -5 8 47 5 90 -6z m618 9 c-7 -2
-19 -2 -25 0 -7 3 -2 5 12 5 14 0 19 -2 13 -5z m460 0 c-7 -2 -19 -2 -25 0 -7
3 -2 5 12 5 14 0 19 -2 13 -5z m804 0 c-98 -2 -256 -2 -350 0 -95 1 -14 3 178
2 193 0 270 -1 172 -2z m231 0 c-10 -2 -26 -2 -35 0 -10 3 -2 5 17 5 19 0 27
-2 18 -5z m642 -3 c96 -6 89 -7 -75 -7 -99 0 -254 3 -345 7 l-165 6 240 1
c132 0 287 -3 345 -7z m265 -10 c-46 -12 -133 -12 -115 0 8 5 44 9 80 9 51 -1
58 -3 35 -9z m-3885 -16 c0 -2 -7 -4 -15 -4 -8 0 -15 4 -15 10 0 5 7 7 15 4 8
-4 15 -8 15 -10z m4650 6 c0 -6 -23 -9 -52 -8 l-53 1 45 7 c25 4 48 8 53 8 4
1 7 -2 7 -8z m58 3 c-10 -2 -26 -2 -35 0 -10 3 -2 5 17 5 19 0 27 -2 18 -5z
m-4633 -13 c17 -7 15 -9 -12 -9 -18 -1 -33 4 -33 9 0 12 17 12 45 0z m1495 0
c0 -5 -5 -10 -11 -10 -5 0 -7 5 -4 10 3 6 8 10 11 10 2 0 4 -4 4 -10z m710 0
l35 -6 -38 -8 c-21 -5 -68 -6 -105 -2 -37 3 -172 7 -300 7 -128 1 -235 6 -238
10 -6 10 590 8 646 -1z m2250 0 c10 -7 -5 -9 -50 -8 -63 1 -64 1 -20 8 25 4
47 8 50 8 3 1 12 -3 20 -8z m-4876 -9 c4 -5 -3 -7 -14 -4 -23 6 -26 13 -6 13
8 0 17 -4 20 -9z m926 -7 c91 -3 172 -11 180 -16 10 -6 -19 -7 -80 -4 -52 3
-158 9 -235 13 -96 5 -127 9 -100 14 22 3 47 5 55 3 8 -1 89 -6 180 -10z m918
9 c-15 -2 -42 -2 -60 0 -18 2 -6 4 27 4 33 0 48 -2 33 -4z m890 0 c-10 -2 -28
-2 -40 0 -13 2 -5 4 17 4 22 1 32 -1 23 -4z m202 0 c0 -12 -158 -14 -165 -3
-4 6 25 10 79 10 47 0 86 -3 86 -7z m1820 -3 c0 -6 -25 -9 -57 -8 l-58 1 55 7
c30 4 56 7 58 8 1 1 2 -2 2 -8z m478 0 c-36 -21 -289 -50 -521 -60 -133 -5
-386 -9 -562 -8 l-320 1 280 7 c373 10 682 21 725 25 166 18 227 24 240 23 24
-2 144 13 149 18 2 2 9 4 15 4 6 0 3 -5 -6 -10z m-5191 -6 c-3 -3 -12 -4 -19
-1 -8 3 -5 6 6 6 11 1 17 -2 13 -5z m3209 -9 c18 -14 18 -14 -7 -15 -14 0 -48
3 -75 7 -40 6 -45 8 -24 13 45 12 87 10 106 -5z m689 4 c50 -1 63 -3 45 -9
-33 -11 -477 -12 -484 -2 -3 5 68 9 157 11 88 1 163 4 166 7 3 3 15 3 26 0 11
-3 52 -6 90 -7z m585 2 c0 -10 -159 -23 -200 -17 -14 3 -45 6 -70 7 -25 2 23
6 105 9 83 3 153 7 158 8 4 1 7 -2 7 -7z m-4188 -21 c106 -5 328 -14 493 -20
164 -6 302 -13 305 -17 9 -9 -770 5 -877 16 -57 6 -126 18 -155 26 l-53 15 47
-5 c26 -4 134 -10 240 -15z m3048 8 c0 -10 -77 -11 -83 0 -3 4 15 7 39 7 24 1
44 -3 44 -7z m1203 5 c-7 -2 -19 -2 -25 0 -7 3 -2 5 12 5 14 0 19 -2 13 -5z
m716 -7 c-2 -2 -22 -7 -44 -10 l-40 -6 40 13 c36 12 55 13 44 3z m-1866 -3
c-7 -2 -21 -2 -30 0 -10 3 -4 5 12 5 17 0 24 -2 18 -5z m-2060 -10 c-13 -2
-35 -2 -50 0 -16 2 -5 4 22 4 28 0 40 -2 28 -4z m1262 -3 c-3 -5 -23 -9 -43
-9 l-37 2 40 7 c22 4 41 8 43 9 2 0 0 -3 -3 -9z m-1172 -7 c-13 -2 -33 -2 -45
0 -13 2 -3 4 22 4 25 0 35 -2 23 -4z m267 -13 l135 -7 -116 -1 c-135 -2 -239
7 -239 20 0 6 17 7 43 2 23 -4 103 -10 177 -14z m1003 13 c-7 -2 -21 -2 -30 0
-10 3 -4 5 12 5 17 0 24 -2 18 -5z m-1453 -19 c0 -2 -7 -4 -15 -4 -8 0 -15 4
-15 10 0 5 7 7 15 4 8 -4 15 -8 15 -10z m2043 9 c-40 -2 -106 -2 -145 0 -40 1
-8 3 72 3 80 0 112 -2 73 -3z m132 -3 c-27 -12 -35 -12 -35 0 0 6 12 10 28 9
24 0 25 -1 7 -9z m52 4 c-3 -3 -12 -4 -19 -1 -8 3 -5 6 6 6 11 1 17 -2 13 -5z
m-2309 -11 c-10 -2 -26 -2 -35 0 -10 3 -2 5 17 5 19 0 27 -2 18 -5z m3855 0
c-7 -2 -19 -2 -25 0 -7 3 -2 5 12 5 14 0 19 -2 13 -5z m-2693 -32 c0 -13 27
-12 -246 -17 -127 -2 -242 -1 -254 4 -15 6 49 9 169 10 107 1 195 3 197 5 10
10 134 7 134 -2z m1083 2 c-46 -2 -120 -2 -165 0 -46 1 -9 3 82 3 91 0 128 -2
83 -3z m230 0 c-7 -2 -19 -2 -25 0 -7 3 -2 5 12 5 14 0 19 -2 13 -5z m1012 -3
c-74 -10 -276 -11 -253 -2 10 4 84 8 165 8 111 2 133 0 88 -6z m-3497 -7 c-60
-2 -156 -2 -215 0 -60 1 -11 3 107 3 118 0 167 -2 108 -3z m3195 0 c-18 -2
-48 -2 -65 0 -18 2 -4 4 32 4 36 0 50 -2 33 -4z"/>
<path d="M6918 8723 c6 -2 18 -2 25 0 6 3 1 5 -13 5 -14 0 -19 -2 -12 -5z"/>
<path d="M1935 8329 c-4 -6 -5 -12 -2 -15 2 -3 7 2 10 11 7 17 1 20 -8 4z"/>
<path d="M3072 7760 c-198 -53 -325 -176 -406 -393 -55 -144 -45 -242 41 -414
48 -95 67 -122 108 -155 61 -49 141 -90 218 -112 84 -24 253 -37 329 -25 68
10 176 42 219 64 44 23 144 128 167 176 51 106 72 258 52 391 -21 149 -89 269
-217 382 -101 89 -347 131 -511 86z m118 -21 c-30 -4 -75 -15 -99 -23 -47 -17
-81 -21 -65 -8 5 5 29 14 54 21 25 8 50 15 55 16 6 2 33 3 60 3 l50 0 -55 -9z
m183 -38 c15 -15 -3 -14 -78 4 l-60 15 64 -4 c35 -3 68 -9 74 -15z m132 -30
c42 -19 149 -110 166 -143 6 -11 -15 1 -46 27 -68 55 -115 84 -175 110 -25 10
-49 23 -55 28 -15 14 63 -2 110 -22z m-592 -48 c-59 -63 -110 -133 -124 -171
-5 -14 -12 -23 -14 -20 -8 7 26 98 36 98 5 0 9 5 9 11 0 12 128 139 140 139 3
0 -18 -26 -47 -57z m387 37 c12 -7 8 -10 -15 -10 -16 0 -61 -2 -100 -5 l-70
-5 40 14 c47 17 124 20 145 6z m-250 -14 c0 -2 -9 -6 -20 -9 -11 -3 -18 -1
-14 4 5 9 34 13 34 5z m326 -57 c32 -12 77 -40 101 -62 82 -76 143 -225 143
-352 0 -63 -5 -81 -36 -145 -20 -40 -54 -90 -74 -110 -93 -93 -317 -117 -446
-48 -133 70 -220 202 -218 333 1 145 100 293 249 372 53 29 69 32 142 33 60 0
98 -6 139 -21z m-383 -31 c-124 -114 -173 -197 -183 -311 -4 -50 -9 -66 -14
-54 -23 50 40 253 86 278 10 5 18 16 18 23 0 20 98 106 121 106 14 0 7 -11
-28 -42z m704 -135 c8 -19 13 -36 10 -39 -3 -4 -13 11 -22 32 -9 21 -23 47
-33 59 -17 20 -17 20 6 1 13 -11 30 -35 39 -53z m50 -179 c-5 -39 -17 -40 -17
-2 0 20 -2 51 -5 69 -5 34 -5 34 10 -5 8 -22 14 -50 12 -62z m-995 14 c-4 -66
11 -156 44 -265 3 -10 -9 9 -25 42 -37 73 -49 168 -31 244 6 28 13 51 14 51 2
0 1 -33 -2 -72z m933 -113 c-4 -32 -15 -62 -30 -80 l-25 -30 21 48 c11 26 23
80 27 120 6 56 8 63 10 32 2 -22 1 -63 -3 -90z m82 48 c-3 -10 -5 -2 -5 17 0
19 2 27 5 18 2 -10 2 -26 0 -35z m-1073 -113 c4 -33 3 -40 -4 -28 -6 10 -13
48 -15 85 -4 54 -3 60 4 28 5 -22 11 -60 15 -85z m1030 53 c-3 -21 -11 -42
-16 -48 -7 -7 -8 -3 -5 10 4 11 9 32 13 48 9 40 16 33 8 -10z m35 -92 c-3 -32
-11 -67 -17 -77 -8 -15 -10 -9 -6 26 12 109 16 133 23 122 4 -7 4 -39 0 -71z
m-883 -82 c74 -107 214 -179 354 -181 64 -1 69 -2 35 -8 -44 -9 -116 -4 -181
10 -44 10 -128 62 -183 113 -36 35 -92 144 -98 192 -2 21 4 13 21 -28 13 -32
37 -76 52 -98z m817 16 c-29 -77 -143 -185 -143 -134 0 5 5 9 10 9 37 0 149
155 133 184 -4 8 -3 8 6 0 9 -8 7 -22 -6 -59z m-91 -2 c-6 -10 -20 -27 -33
-38 -24 -21 -19 -9 15 37 21 30 34 31 18 1z m-797 -73 c20 -33 59 -80 88 -105
63 -55 58 -58 -11 -6 -64 47 -122 118 -122 149 0 12 2 22 4 22 3 0 21 -27 41
-60z m40 8 c16 -24 22 -38 14 -31 -15 12 -53 73 -46 73 2 0 17 -19 32 -42z
m661 -87 c-3 -5 -16 -11 -28 -14 -22 -6 -22 -5 -4 8 22 17 40 20 32 6z m-403
-73 c31 -6 57 -15 57 -19 0 -5 -5 -9 -10 -9 -22 0 -154 40 -164 50 -6 6 4 5
25 -1 19 -6 60 -16 92 -21z m240 25 c-7 -2 -19 -2 -25 0 -7 3 -2 5 12 5 14 0
19 -2 13 -5z m173 -38 c-53 -25 -181 -53 -193 -41 -11 11 18 26 52 26 17 0 57
9 90 20 84 27 110 24 51 -5z m-206 -29 c0 -2 -7 -7 -16 -10 -8 -3 -12 -2 -9 4
6 10 25 14 25 6z"/>
<path d="M6310 6345 c-8 -2 -67 -9 -130 -15 -95 -10 -137 -21 -241 -60 -181
-69 -236 -98 -384 -205 -38 -28 -89 -63 -113 -78 l-42 -28 6 110 c9 137 0 163
-62 187 -39 15 -97 17 -477 18 -399 1 -435 0 -469 -17 -56 -28 -59 -54 -56
-497 1 -212 -1 -893 -5 -1515 l-8 -1130 23 -45 c19 -37 29 -46 58 -51 19 -3
47 -11 62 -17 14 -6 80 -11 145 -12 65 -1 195 -6 288 -11 216 -13 455 -3 455
18 0 9 6 13 15 9 28 -10 67 36 76 92 6 44 11 1169 6 1432 -2 99 10 288 23 370
23 135 92 257 197 346 78 66 122 89 205 109 89 21 118 19 232 -16 168 -52 206
-77 286 -194 92 -134 103 -274 102 -1363 l0 -753 23 -15 c40 -26 253 -37 610
-30 182 3 346 11 366 16 74 20 73 19 81 212 4 95 6 567 6 1048 0 993 -5 1077
-63 1279 -38 134 -50 160 -138 311 -50 84 -85 128 -175 218 -124 124 -173 160
-271 196 -183 67 -291 86 -475 85 -77 -1 -148 -3 -156 -4z m280 -34 c80 -9
259 -53 325 -81 17 -7 36 -14 44 -16 8 -1 17 -8 21 -14 4 -7 10 -11 14 -10 17
5 128 -74 159 -113 63 -78 60 -93 -5 -26 -68 71 -125 105 -299 177 -147 61
-227 75 -424 75 -115 0 -149 2 -105 7 101 10 177 10 270 1z m-357 -18 c-7 -2
-21 -2 -30 0 -10 3 -4 5 12 5 17 0 24 -2 18 -5z m-70 -10 c-7 -2 -21 -2 -30 0
-10 3 -4 5 12 5 17 0 24 -2 18 -5z m-56 -9 c-3 -3 -12 -4 -19 -1 -8 3 -5 6 6
6 11 1 17 -2 13 -5z m307 -15 c3 -3 -52 -11 -123 -17 -71 -7 -165 -22 -209
-33 -134 -34 -328 -120 -492 -220 l-35 -21 40 36 c79 71 388 208 530 236 105
20 277 31 289 19z m-1646 -18 c17 -10 -58 -21 -137 -20 l-56 1 40 13 c46 15
134 19 153 6z m1885 -6 c33 -7 64 -12 70 -11 7 2 9 1 4 -1 -4 -3 -5 -8 -2 -12
2 -4 -19 -4 -48 1 -29 5 -126 9 -217 10 -160 1 -162 1 -70 9 52 5 106 10 120
12 51 8 86 6 143 -8z m-2139 -10 c-10 -8 -29 -15 -41 -15 -12 0 -29 -10 -39
-22 -16 -23 -16 -23 -9 7 8 37 20 45 69 45 37 0 39 -1 20 -15z m836 -5 c12 -8
10 -9 -10 -9 -14 1 -38 5 -55 9 -29 7 -29 8 10 9 22 0 47 -4 55 -9z m-954 -12
c-12 -40 -17 -50 -22 -46 -5 6 13 58 20 58 3 0 4 -6 2 -12z m167 5 c-7 -2 -19
-2 -25 0 -7 3 -2 5 12 5 14 0 19 -2 13 -5z m694 -21 c29 -17 -5 -24 -60 -12
-28 6 -110 15 -182 20 -130 9 -130 9 48 5 98 -3 185 -9 194 -13z m1428 -40
c251 -64 373 -135 495 -287 109 -137 191 -349 216 -560 4 -27 8 -53 10 -56 4
-7 4 -41 -1 -1127 -2 -496 -6 -911 -10 -921 -3 -10 -16 -22 -28 -25 -43 -13
-512 -28 -607 -19 l-95 8 1 110 c20 1637 17 1701 -75 1900 -34 72 -109 179
-150 213 -40 32 -120 65 -219 89 -88 21 -131 26 -242 26 -128 0 -139 -1 -215
-31 -155 -61 -304 -182 -376 -307 -39 -68 -85 -212 -99 -314 -6 -46 -13 -170
-16 -275 -5 -260 -14 -932 -15 -1203 l-1 -223 -62 2 -61 2 53 3 c28 2 52 9 52
14 0 6 -3 8 -8 5 -10 -6 -443 -21 -594 -21 -65 1 -120 4 -124 8 -4 4 -6 235
-4 514 1 280 3 942 4 1473 l1 964 40 9 c61 12 653 3 667 -11 8 -8 12 -77 13
-214 2 -222 10 -264 52 -274 38 -10 56 3 164 121 194 210 377 331 589 388 238
65 439 71 645 19z m168 12 c95 -30 162 -66 231 -124 26 -22 54 -40 62 -40 8 0
14 -2 14 -4 0 -2 3 -12 7 -21 3 -10 -33 12 -81 49 -93 71 -114 82 -251 128
-49 16 -92 32 -94 34 -12 11 39 1 112 -22z m-1923 8 c25 -4 -72 -7 -214 -7
-143 0 -247 3 -230 6 40 9 388 9 444 1z m390 -66 c0 -22 -5 -48 -10 -56 -7
-11 -10 -6 -10 21 0 20 -3 52 -7 70 -6 31 -5 33 10 20 11 -9 17 -28 17 -55z
m-887 -87 c-4 -4 -7 15 -7 44 2 73 7 82 11 18 2 -30 1 -57 -4 -62z m1357 47
c0 -2 -19 -15 -42 -29 -24 -13 -60 -34 -80 -46 -21 -13 -38 -20 -38 -17 0 5
149 96 157 96 2 0 3 -2 3 -4z m-1350 -202 c0 -87 -4 -133 -10 -129 -5 3 -10
30 -10 59 0 63 11 206 16 206 2 0 4 -61 4 -136z m2833 64 c18 -32 18 -32 -17
7 -19 22 -35 44 -36 49 0 15 34 -21 53 -56z m-1933 36 c0 -8 -5 -12 -10 -9 -6
4 -8 11 -5 16 9 14 15 11 15 -7z m180 -38 c0 -2 -28 -27 -62 -56 l-63 -52 58
56 c54 52 67 62 67 52z m-183 -125 c-1 -66 -6 -123 -11 -128 -5 -4 -6 -3 -2 5
4 6 3 12 -2 12 -5 0 -9 52 -8 115 0 82 4 115 13 115 9 0 11 -32 10 -119z
m1972 15 c-2 -2 -13 8 -23 22 l-19 27 24 -22 c12 -12 21 -24 18 -27z m-1894
-30 c-9 -13 -23 -27 -31 -30 -8 -3 -14 -10 -14 -16 0 -6 5 -8 10 -5 16 10 12
-1 -8 -18 -17 -16 -18 -15 -18 16 0 25 7 37 31 54 40 28 49 28 30 -1z m1982
-59 c15 -31 15 -31 -2 -17 -14 11 -11 3 8 -31 29 -49 67 -201 65 -259 0 -27
-2 -29 -5 -10 -9 52 -55 206 -79 264 -27 67 -28 69 -14 61 14 -9 12 8 -2 24
-11 11 -10 13 0 7 6 -4 20 -22 29 -39z m-2920 -4 c-3 -10 -5 -4 -5 12 0 17 2
24 5 18 2 -7 2 -21 0 -30z m2858 -13 c9 -16 13 -30 11 -30 -3 0 -12 14 -21 30
-9 17 -13 30 -11 30 3 0 12 -13 21 -30z m-2891 -580 c4 -347 3 -612 -4 -730
-6 -102 -13 -243 -15 -314 -3 -71 -7 -131 -10 -134 -8 -9 -5 280 5 468 12 225
13 382 6 885 -3 226 -2 401 3 390 4 -11 11 -265 15 -565z m3055 385 c0 -5 -4
-3 -9 5 -5 8 -9 22 -9 30 0 16 17 -16 18 -35z m30 -170 l0 -20 -8 20 c-5 11
-11 49 -14 85 l-6 65 14 -65 c7 -36 14 -74 14 -85z m-1275 56 c145 -58 260
-179 301 -316 20 -65 2 -48 -24 23 -11 33 -37 79 -56 103 -61 78 -188 170
-252 184 -17 3 -115 28 -158 39 -11 3 9 4 45 2 43 -2 91 -14 144 -35z m-135
-12 c48 -17 33 -19 -29 -4 -33 8 -45 14 -29 14 14 1 40 -4 58 -10z m325 -54
c25 -25 55 -60 67 -78 13 -19 5 -13 -20 15 -23 26 -63 66 -89 88 -26 23 -37
37 -25 31 11 -6 42 -31 67 -56z m996 -19 c0 -39 -6 -31 -14 19 -5 29 -4 36 3
25 6 -8 11 -28 11 -44z m44 -11 c5 -42 4 -56 -3 -45 -10 13 -16 119 -7 109 2
-2 7 -31 10 -64z m-1749 38 c-16 -9 -30 -14 -31 -12 -1 11 -105 -86 -149 -139
-27 -34 -51 -59 -53 -57 -16 15 128 185 156 185 4 0 25 9 47 20 47 24 73 26
30 3z m-205 -107 c0 -2 -8 -10 -17 -17 -16 -13 -17 -12 -4 4 13 16 21 21 21
13z m900 -36 c30 -43 18 -37 -16 7 -15 20 -23 33 -16 29 6 -3 21 -20 32 -36z
m118 -5 c-3 -3 -9 2 -12 12 -6 14 -5 15 5 6 7 -7 10 -15 7 -18z m947 -668 c-2
-280 -6 -511 -9 -514 -3 -4 -5 266 -5 598 1 355 5 567 9 514 5 -49 7 -319 5
-598z m47 466 c3 -126 0 -246 -6 -303 -11 -86 -12 -67 -12 208 0 166 3 302 7
302 3 0 8 -93 11 -207z m-3155 145 c-3 -8 -6 -5 -6 6 -1 11 2 17 5 13 3 -3 4
-12 1 -19z m1084 -5 c-12 -20 -14 -14 -5 12 4 9 9 14 11 11 3 -2 0 -13 -6 -23z
m-994 -5 c-3 -8 -6 -5 -6 6 -1 11 2 17 5 13 3 -3 4 -12 1 -19z m-87 -120 c0
-61 -2 -109 -5 -107 -7 7 -15 200 -9 210 12 20 14 4 14 -103z m1055 40 c-8
-30 -22 -63 -30 -74 -8 -11 -3 14 12 59 29 87 43 98 18 15z m1060 32 c-3 -5
-1 -10 4 -10 6 0 11 -6 11 -14 0 -7 12 -35 26 -62 22 -41 28 -67 33 -160 7
-133 -1 -205 -12 -104 -4 36 -14 97 -23 135 -8 39 -17 87 -19 108 -3 20 -12
48 -21 62 -15 22 -14 55 1 55 4 0 3 -4 0 -10z m-2018 -97 c-3 -10 -5 -4 -5 12
0 17 2 24 5 18 2 -7 2 -21 0 -30z m2130 -35 c-3 -7 -5 -2 -5 12 0 14 2 19 5
13 2 -7 2 -19 0 -25z m-1160 -10 c-3 -8 -6 -5 -6 6 -1 11 2 17 5 13 3 -3 4
-12 1 -19z m-41 -14 c-16 -41 -23 -204 -18 -374 9 -249 8 -353 -4 -430 l-10
-65 -7 50 c-13 91 -1 745 14 793 8 23 18 42 23 42 4 0 5 -7 2 -16z m-929 -56
c-2 -13 -4 -3 -4 22 0 25 2 35 4 23 2 -13 2 -33 0 -45z m0 -75 c-3 -10 -5 -4
-5 12 0 17 2 24 5 18 2 -7 2 -21 0 -30z m950 -15 c-3 -7 -5 -2 -5 12 0 14 2
19 5 13 2 -7 2 -19 0 -25z m-110 -40 c-3 -8 -6 -5 -6 6 -1 11 2 17 5 13 3 -3
4 -12 1 -19z m-950 -35 c-3 -10 -5 -4 -5 12 0 17 2 24 5 18 2 -7 2 -21 0 -30z
m3071 -330 c-1 -334 -2 -352 -9 -193 -4 96 -6 249 -4 340 4 219 4 220 10 220
3 0 4 -165 3 -367z m-811 135 c-2 -35 -3 -7 -3 62 0 69 1 97 3 63 2 -35 2 -91
0 -125z m-2260 115 c-3 -10 -5 -4 -5 12 0 17 2 24 5 18 2 -7 2 -21 0 -30z
m2217 2 c-4 -8 -10 -15 -15 -15 -5 0 -9 7 -9 15 0 8 7 15 15 15 9 0 12 -6 9
-15z m941 -149 c-7 -66 0 -110 16 -101 5 4 9 -20 8 -57 -1 -50 -3 -57 -9 -33
-7 26 -8 24 -9 -19 -2 -91 -10 -41 -16 94 -2 74 -2 145 1 158 12 42 16 22 9
-42z m-3158 -98 c-2 -29 -3 -8 -3 47 0 55 1 79 3 53 2 -26 2 -71 0 -100z
m2206 112 c3 -11 1 -18 -4 -14 -5 3 -9 12 -9 20 0 20 7 17 13 -6z m11 -160 c4
-86 3 -120 -4 -110 -9 13 -15 249 -6 239 2 -2 6 -60 10 -129z m-47 -237 c-1
-65 -3 -12 -3 117 0 129 2 182 3 118 2 -65 2 -171 0 -235z m-1207 176 c0 -88
-3 -158 -7 -156 -8 5 -5 317 2 317 3 0 5 -72 5 -161z m1299 46 c-1 -55 -3 -72
-9 -55 -12 37 -12 169 0 150 5 -8 9 -51 9 -95z m-2162 23 c-3 -8 -6 -5 -6 6
-1 11 2 17 5 13 3 -3 4 -12 1 -19z m0 -65 c-3 -10 -5 -4 -5 12 0 17 2 24 5 18
2 -7 2 -21 0 -30z m-100 -35 c-3 -7 -5 -2 -5 12 0 14 2 19 5 13 2 -7 2 -19 0
-25z m103 -58 c0 -40 -4 -70 -10 -70 -5 0 -10 15 -10 33 0 37 11 107 16 107 2
0 4 -31 4 -70z m3079 -67 c0 -27 -4 -66 -9 -88 -9 -39 -9 -39 -5 11 2 28 0 67
-5 87 -6 29 -5 37 6 37 10 0 14 -13 13 -47z m-962 -15 c-3 -8 -6 -5 -6 6 -1
11 2 17 5 13 3 -3 4 -12 1 -19z m45 -90 c-3 -139 -12 -138 -12 2 0 62 3 110 7
106 4 -4 6 -52 5 -108z m-1215 5 c-2 -21 -4 -6 -4 32 0 39 2 55 4 38 2 -18 2
-50 0 -70z m1170 45 c-3 -8 -6 -5 -6 6 -1 11 2 17 5 13 3 -3 4 -12 1 -19z
m-2122 -86 c3 -48 1 -83 -5 -87 -6 -4 -10 27 -10 86 0 112 9 112 15 1z m2122
1 c-3 -10 -5 -2 -5 17 0 19 2 27 5 18 2 -10 2 -26 0 -35z m917 -235 c3 -155 2
-269 -3 -272 -9 -6 -15 72 -27 367 -4 102 -2 147 5 147 6 0 11 8 11 17 0 9 2
14 4 12 2 -2 6 -124 10 -271z m43 220 c2 -18 0 -20 -7 -8 -12 18 -13 30 -2 30
4 0 9 -10 9 -22z m-2132 -8 c3 -5 1 -10 -4 -10 -6 0 -11 5 -11 10 0 6 2 10 4
10 3 0 8 -4 11 -10z m1175 -286 c0 -153 0 -290 0 -304 0 -68 -12 -150 -22
-144 -7 5 -8 34 -3 88 4 45 7 88 6 96 0 8 0 110 0 225 1 186 2 230 8 309 0 11
3 17 6 14 3 -2 5 -130 5 -284z m-2183 244 c-3 -8 -6 -5 -6 6 -1 11 2 17 5 13
3 -3 4 -12 1 -19z m910 -15 c-3 -10 -5 -4 -5 12 0 17 2 24 5 18 2 -7 2 -21 0
-30z m2232 -61 c-1 -98 -13 -84 -17 20 -2 58 0 78 7 68 6 -8 10 -48 10 -88z
m-2130 -24 c0 -57 -4 -111 -7 -121 -4 -9 -7 37 -7 103 0 66 3 120 8 120 4 0 7
-46 6 -102z m-962 -10 c-3 -8 -6 -5 -6 6 -1 11 2 17 5 13 3 -3 4 -12 1 -19z
m-50 -40 c-3 -8 -6 -5 -6 6 -1 11 2 17 5 13 3 -3 4 -12 1 -19z m13 -54 c0 -13
-4 -24 -10 -24 -5 0 -10 14 -10 31 0 17 4 28 10 24 6 -3 10 -17 10 -31z m3127
-16 c-3 -8 -6 -5 -6 6 -1 11 2 17 5 13 3 -3 4 -12 1 -19z m-2140 -135 c-2 -16
-4 -3 -4 27 0 30 2 43 4 28 2 -16 2 -40 0 -55z m-991 -6 c3 -30 1 -57 -3 -60
-4 -3 -9 25 -11 61 -3 78 8 77 14 -1z m891 -62 c0 -42 -4 -78 -9 -81 -9 -6
-11 79 -2 125 4 17 8 31 9 31 2 0 2 -34 2 -75z m2148 -133 c-4 -11 -9 -12 -17
-4 -7 7 -8 27 -3 59 l8 48 9 -43 c5 -24 7 -51 3 -60z m92 56 c-3 -7 -5 -2 -5
12 0 14 2 19 5 13 2 -7 2 -19 0 -25z m-50 -30 c-3 -7 -5 -2 -5 12 0 14 2 19 5
13 2 -7 2 -19 0 -25z m-2190 -10 c-3 -8 -6 -5 -6 6 -1 11 2 17 5 13 3 -3 4
-12 1 -19z m2240 -10 c-3 -7 -5 -2 -5 12 0 14 2 19 5 13 2 -7 2 -19 0 -25z
m-3140 -10 c-3 -8 -6 -5 -6 6 -1 11 2 17 5 13 3 -3 4 -12 1 -19z m3090 -20
c-3 -7 -5 -2 -5 12 0 14 2 19 5 13 2 -7 2 -19 0 -25z m-2190 -20 c-3 -7 -5 -2
-5 12 0 14 2 19 5 13 2 -7 2 -19 0 -25z m-838 -75 c0 -64 -3 -91 -9 -78 -16
36 -11 175 6 175 2 0 4 -44 3 -97z m3078 45 c-3 -7 -5 -2 -5 12 0 14 2 19 5
13 2 -7 2 -19 0 -25z m-100 -15 c-3 -10 -5 -4 -5 12 0 17 2 24 5 18 2 -7 2
-21 0 -30z m60 12 c0 -8 -4 -12 -9 -9 -4 3 -8 9 -8 15 0 5 4 9 8 9 5 0 9 -7 9
-15z m-2198 -90 c0 -30 -5 -55 -10 -55 -7 0 -9 21 -6 53 6 59 5 57 11 57 3 0
5 -25 5 -55z m2151 28 c0 -29 -12 -24 -17 7 -2 11 2 20 7 20 6 0 10 -12 10
-27z m87 -5 c-3 -7 -5 -2 -5 12 0 14 2 19 5 13 2 -7 2 -19 0 -25z m-50 -20
c-3 -8 -6 -5 -6 6 -1 11 2 17 5 13 3 -3 4 -12 1 -19z m-917 -19 c0 -11 -4 -18
-10 -14 -5 3 -7 12 -3 20 7 21 13 19 13 -6z m-2163 -13 c-7 -17 31 -69 44 -61
4 3 21 0 35 -8 33 -17 16 -31 -21 -17 -15 6 -31 8 -35 5 -5 -3 -17 12 -26 32
-10 21 -20 42 -22 47 -3 5 0 6 6 2 7 -4 12 -2 12 3 0 6 3 11 6 11 3 0 4 -6 1
-14z m2966 -3 c-13 -2 -33 -2 -45 0 -13 2 -3 4 22 4 25 0 35 -2 23 -4z m-3013
-29 c0 -8 -4 -12 -10 -9 -5 3 -10 13 -10 21 0 8 5 12 10 9 6 -3 10 -13 10 -21z
m1030 -29 c-15 -41 -21 -26 -8 21 6 21 13 32 15 23 2 -8 -1 -28 -7 -44z m2087
10 c-4 -8 -11 -15 -17 -15 -6 0 -6 7 2 20 14 22 24 19 15 -5z m-2807 1 c14 -2
-10 -4 -52 -5 -43 0 -78 2 -78 7 0 6 70 6 130 -2z m90 4 c0 -5 -10 -10 -22 -9
-22 0 -22 1 -3 9 11 5 21 9 23 9 1 1 2 -3 2 -9z m103 -1 c-8 -8 -16 -8 -30 0
-16 9 -14 10 12 11 21 0 26 -3 18 -11z m1875 4 c-15 -2 -42 -2 -60 0 -18 2 -6
4 27 4 33 0 48 -2 33 -4z m-1625 -10 c-7 -2 -19 -2 -25 0 -7 3 -2 5 12 5 14 0
19 -2 13 -5z m196 -36 c-33 -14 -475 -22 -519 -9 -37 11 -11 12 357 16 83 0
155 4 159 8 4 4 11 5 17 1 6 -3 0 -11 -14 -16z m1218 1 c-3 -8 -6 -5 -6 6 -1
11 2 17 5 13 3 -3 4 -12 1 -19z m843 2 c-18 -12 -34 -12 -401 -10 -157 0 -299
5 -315 10 -18 6 106 9 339 8 202 0 370 2 374 6 3 3 9 4 12 0 3 -3 -1 -9 -9
-14z m141 -24 c-18 -18 -34 -21 -109 -23 l-87 -1 75 7 c90 10 130 24 131 48 0
12 2 14 6 4 3 -7 -4 -23 -16 -35z m-94 28 c-3 -3 -12 -4 -19 -1 -8 3 -5 6 6 6
11 1 17 -2 13 -5z m-2687 -16 c0 -10 -24 -8 -65 2 -25 7 -23 8 17 7 27 -1 48
-5 48 -9z m1940 -29 c-26 -5 -65 -5 -90 0 -39 8 -34 9 45 9 79 0 85 -1 45 -9z
m443 -16 c-24 -2 -62 -2 -85 0 -24 2 -5 4 42 4 47 0 66 -2 43 -4z"/>
<path d="M6541 4955 c-1 -5 6 -30 13 -55 8 -25 15 -36 15 -24 1 12 -6 37 -14
55 -8 19 -14 30 -14 24z"/>
<path d="M7541 4344 c0 -11 3 -14 6 -6 3 7 2 16 -1 19 -3 4 -6 -2 -5 -13z"/>
<path d="M2965 6269 c-183 -10 -251 -20 -273 -42 -14 -15 -18 -54 -24 -300 -8
-341 -9 -1110 -1 -1262 3 -60 6 -450 7 -866 1 -725 2 -758 20 -778 10 -11 32
-25 50 -30 39 -12 919 -7 960 6 42 13 65 50 78 124 7 41 12 352 14 864 2 440
4 1108 6 1485 3 679 3 685 -18 731 -36 77 -45 79 -381 77 -158 -1 -355 -5
-438 -9z m222 -25 c-3 -3 -12 -4 -19 -1 -8 3 -5 6 6 6 11 1 17 -2 13 -5z m301
-1 c-10 -2 -28 -2 -40 0 -13 2 -5 4 17 4 22 1 32 -1 23 -4z m-235 -30 c-7 -2
-21 -2 -30 0 -10 3 -4 5 12 5 17 0 24 -2 18 -5z m125 0 c-21 -2 -55 -2 -75 0
-21 2 -4 4 37 4 41 0 58 -2 38 -4z m252 -3 c0 -11 -177 -6 -188 5 -3 3 38 5
91 5 61 0 97 -4 97 -10z m26 -17 c-10 -10 -19 5 -10 18 6 11 8 11 12 0 2 -7 1
-15 -2 -18z m-910 -9 c-11 -7 -22 -11 -25 -8 -3 3 3 12 13 20 11 7 22 11 25 8
3 -3 -3 -12 -13 -20z m367 19 c-7 -2 -19 -2 -25 0 -7 3 -2 5 12 5 14 0 19 -2
13 -5z m-43 -33 c-69 -4 -158 -11 -197 -15 -55 -5 -73 -4 -73 5 0 8 10 11 28
8 15 -3 41 -2 57 2 17 4 93 7 170 7 l140 0 -125 -7z m-298 -76 c-4 -82 -10
-107 -23 -98 -6 3 -8 12 -5 19 3 8 0 15 -7 18 -9 3 -9 10 1 31 6 15 12 45 12
67 0 28 4 39 13 36 8 -3 11 -24 9 -73z m992 44 c3 -13 5 -41 5 -63 l-2 -40 -6
40 c-4 22 -11 50 -15 63 -4 12 -3 22 2 22 5 0 12 -10 16 -22z m-147 -88 c1
-52 4 -119 7 -148 7 -57 6 -1208 -1 -1282 -2 -25 -5 -356 -6 -737 -2 -542 -5
-695 -15 -705 -9 -9 -102 -13 -385 -16 l-372 -4 2 463 c2 255 2 655 1 889 -2
694 -2 907 3 1060 2 80 2 232 0 339 -1 122 1 197 8 204 21 21 125 27 414 26
164 -1 301 1 304 5 4 4 14 5 23 4 12 -3 15 -21 17 -98z m120 -289 c4 -215 3
-322 -4 -318 -5 3 -13 85 -17 184 -4 98 -8 187 -8 198 -1 11 0 90 1 175 5 258
20 123 28 -239z m-1021 349 c0 -11 -4 -20 -8 -20 -4 0 -8 9 -8 20 0 11 4 20 8
20 4 0 8 -9 8 -20z m951 -22 c-3 -7 -5 -2 -5 12 0 14 2 19 5 13 2 -7 2 -19 0
-25z m-955 -60 c-6 -6 -7 0 -4 19 5 21 7 23 10 9 2 -10 0 -22 -6 -28z m104
-18 c-3 -17 -6 -137 -7 -268 -1 -130 -5 -221 -9 -202 -3 19 -10 46 -14 59 -5
13 -4 21 0 18 5 -3 8 86 7 196 -3 210 -1 227 18 227 7 0 9 -11 5 -30z m-69
-232 c-3 -8 -6 -5 -6 6 -1 11 2 17 5 13 3 -3 4 -12 1 -19z m1030 -10 c-3 -8
-6 -5 -6 6 -1 11 2 17 5 13 3 -3 4 -12 1 -19z m-1018 -1043 c0 -407 4 -910 7
-1117 5 -231 3 -378 -2 -378 -20 0 -30 148 -24 345 4 110 5 313 3 450 -2 138
-5 576 -7 975 -2 622 0 707 10 595 8 -87 12 -374 13 -870z m46 615 c0 -39 -3
-76 -7 -83 -4 -6 -8 28 -8 77 0 49 3 86 7 83 3 -4 7 -39 8 -77z m915 -315 c11
-229 5 -1033 -8 -1021 -2 3 -6 239 -7 523 -1 285 -5 590 -8 678 -4 110 -3 144
3 110 5 -27 14 -158 20 -290z m47 238 c-3 -10 -5 -2 -5 17 0 19 2 27 5 18 2
-10 2 -26 0 -35z m-965 -607 c-7 -71 -9 -17 -9 244 l0 335 9 -244 c5 -146 5
-281 0 -335z m965 437 c-3 -10 -5 -4 -5 12 0 17 2 24 5 18 2 -7 2 -21 0 -30z
m-100 -180 c-2 -37 -3 -9 -3 62 0 72 1 102 3 68 2 -34 2 -93 0 -130z m113 53
c0 -3 -4 -8 -10 -11 -5 -3 -10 -1 -10 4 0 6 5 11 10 11 6 0 10 -2 10 -4z
m-1083 -38 c-3 -8 -6 -5 -6 6 -1 11 2 17 5 13 3 -3 4 -12 1 -19z m970 -140
c-2 -13 -4 -5 -4 17 -1 22 1 32 4 23 2 -10 2 -28 0 -40z m100 -190 c-2 -18 -4
-4 -4 32 0 36 2 50 4 33 2 -18 2 -48 0 -65z m-958 -627 c1 -300 -1 -542 -4
-539 -3 3 -8 257 -10 564 -2 314 0 550 5 539 4 -11 9 -265 9 -564z m858 407
c-2 -13 -4 -3 -4 22 0 25 2 35 4 23 2 -13 2 -33 0 -45z m1 -335 c-1 -149 -3
-168 -7 -93 -6 98 -3 280 5 280 2 0 3 -84 2 -187z m44 -95 c-7 -7 -12 -8 -12
-2 0 6 3 14 7 17 3 4 9 5 12 2 2 -3 -1 -11 -7 -17z m58 18 c0 -3 -4 -8 -10
-11 -5 -3 -10 -1 -10 4 0 6 5 11 10 11 6 0 10 -2 10 -4z m-13 -73 c-3 -10 -5
-2 -5 17 0 19 2 27 5 18 2 -10 2 -26 0 -35z m-31 -354 c5 -319 4 -356 -10
-368 -9 -8 -18 -12 -21 -10 -7 8 -9 101 -5 279 3 137 5 162 11 115 4 -36 6 15
4 130 -3 171 0 223 11 213 2 -2 6 -164 10 -359z m31 189 c-2 -18 -4 -4 -4 32
0 36 2 50 4 33 2 -18 2 -48 0 -65z m-90 60 c-3 -8 -6 -5 -6 6 -1 11 2 17 5 13
3 -3 4 -12 1 -19z m-6 -153 l-9 -40 -1 51 c-1 28 2 67 7 85 l7 34 3 -45 c2
-25 -1 -63 -7 -85z m-851 -395 c0 -22 -3 -40 -8 -40 -4 0 -6 18 -4 40 2 22 6
40 8 40 2 0 4 -18 4 -40z m-6 -65 c-4 -8 -8 -15 -10 -15 -2 0 -4 7 -4 15 0 8
4 15 10 15 5 0 7 -7 4 -15z m826 -55 c0 -5 -8 -10 -17 -10 -15 0 -16 2 -3 10
19 12 20 12 20 0z m-775 -46 c52 13 541 7 568 -7 20 -11 -28 -13 -294 -14
-188 -1 -321 2 -324 8 -4 5 -3 14 1 20 5 8 9 8 14 -1 5 -8 18 -10 35 -6z m750
-4 c-16 -4 -41 -8 -55 -9 -20 0 -22 1 -10 9 8 5 33 9 55 9 39 -1 39 -2 10 -9z
m-466 -44 c-10 -9 -79 -14 -74 -5 4 5 22 9 42 9 20 0 34 -2 32 -4z m109 -3
c-16 -2 -40 -2 -55 0 -16 2 -3 4 27 4 30 0 43 -2 28 -4z m410 0 c-10 -2 -26
-2 -35 0 -10 3 -2 5 17 5 19 0 27 -2 18 -5z m-670 -10 c-32 -2 -86 -2 -120 0
-35 2 -9 3 57 3 66 0 94 -1 63 -3z m510 0 c-10 -2 -26 -2 -35 0 -10 3 -2 5 17
5 19 0 27 -2 18 -5z"/>
<path d="M3711 3464 c0 -11 3 -14 6 -6 3 7 2 16 -1 19 -3 4 -6 -2 -5 -13z"/>
<path d="M8602 7600 c0 -14 2 -19 5 -12 2 6 2 18 0 25 -3 6 -5 1 -5 -13z"/>
</g>
</svg>
